<?xml version="1.0" encoding="UTF-8" standalone="no"?>
<svg
   width="1024"
   height="1024"
   viewBox="0 0 1024 1024"
   version="1.1"
   id="svg140"
   xmlns="http://www.w3.org/2000/svg"
   xmlns:svg="http://www.w3.org/2000/svg">
  <path
     fill="#044c75"
     d="M 491.263,65.6576 C 737.77,54.1401 946.927,244.668 958.388,491.178 969.849,737.688 779.273,946.801 532.76,958.206 286.327,969.607 77.2971,779.106 65.8397,532.676 54.3823,286.245 244.835,77.1715 491.263,65.6576 Z"
     id="path2" />
  <path
     fill="#fefffe"
     d="M 505.972,90.0205 C 739.068,86.5834 930.766,272.856 934.02,505.954 937.274,739.053 750.85,930.604 517.75,933.675 284.908,936.742 93.6155,750.571 90.3651,517.732 87.1147,284.892 273.136,93.4538 505.972,90.0205 Z"
     id="path3" />
  <path
     fill="#044c75"
     d="m 494.469,106.296 c 224.376,-9.7721 414.148,164.288 423.756,388.67 9.608,224.383 -164.59,414.028 -388.98,423.472 C 305.087,927.872 115.68,753.893 106.082,529.742 96.4843,305.591 270.325,116.057 494.469,106.296 Z"
     id="path4" />
  <defs
     id="defs5">
    <linearGradient
       id="gradient_0"
       gradientUnits="userSpaceOnUse"
       x1="562.72253"
       y1="757.47864"
       x2="484.8999"
       y2="388.73566">
      <stop
         offset="0"
         stop-color="#007BA3"
         id="stop4" />
      <stop
         offset="1"
         stop-color="#61A4B6"
         id="stop5" />
    </linearGradient>
  </defs>
  <path
     fill="url(#gradient_0)"
     d="m 118.904,462.326 c 8.583,-80.531 49.817,-163.142 104.699,-221.981 55.3,-58.934 127.467,-99.332 206.616,-115.661 103.155,-20.664 212.106,-2.689 300.082,56.092 88.583,59.425 150.118,151.423 171.221,255.983 0.795,4.311 1.975,9.781 2.562,14.024 l 0.046,1.619 c 1.143,4.447 1.807,11.539 2.282,16.202 l 0.119,2.316 c 0.557,2.674 1.546,13.577 1.373,16.267 l 0.033,1.714 c 0.282,5.422 0.623,10.791 0.576,16.222 l -0.038,2.45 c 0.166,3.879 0.336,9.63 0.134,13.596 l -0.096,2.302 c 0.085,3.451 0.242,10.857 -0.959,14.039 0.541,7.658 -6.739,60.844 -9.66,65.437 -1.237,4.46 -2.043,8.257 -2.957,12.764 -4.948,22.386 -15.315,48.757 -25.162,69.453 -0.99,2.08 -4.732,9.635 -5.989,11.142 -2.284,4.159 -4.852,9.125 -7.361,13.079 -50.87,-65.823 -117.617,-72.361 -191.066,-44.636 6.688,-0.916 13.962,-2.572 20.675,-2.624 44.346,-0.3 91.385,32.297 98.182,77.794 2.405,16.093 -2.132,36.694 -12.222,49.642 -21.72,27.871 -61.199,35.619 -89.746,12.931 -10.781,-8.595 -17.687,-21.137 -19.186,-34.842 -2.287,-22.489 15.642,-45.422 38.491,-47.499 9.465,-0.831 18.868,2.165 26.108,8.318 11.167,9.377 15.855,30.38 5.915,41.858 -3.429,3.938 -8.356,6.253 -13.577,6.379 -13.987,0.427 -23.965,-13.154 -14.967,-25.067 3.068,-4.062 9.124,1.191 12.409,-0.149 0.98,-1.991 0.731,-0.95 0.632,-3.276 -2.765,-5.305 -10.627,-5.959 -14.779,-2.692 -15.963,12.558 -7.176,34.799 11.441,38.043 8.118,1.477 16.488,-0.399 23.199,-5.199 19.14,-13.816 17.066,-41.299 3.731,-57.571 -37.581,-45.862 -105.031,-24.107 -144.376,7.551 -17.318,13.934 -31.557,27.019 -44.121,44.886 33.913,31.409 21.861,90.125 -27.087,94.324 -31.843,2.731 -56.827,-38.573 -33.674,-61.295 5.443,-5.268 12.787,-8.108 20.358,-7.873 6.221,0.146 11.708,2.64 15.985,7.149 4.337,4.573 6.674,9.603 6.238,16.073 -0.229,3.399 -1.532,7.197 -4.167,9.491 -2.506,2.18 -6.315,3.597 -9.647,3.176 -3.004,-0.379 -5.669,-2.25 -7.374,-4.705 -1.006,-1.447 -2.055,-3.679 -1.757,-5.5 0.077,-0.473 0.281,-0.754 0.509,-1.142 1.277,-0.524 1.519,-0.473 2.897,-0.256 0.861,0.827 1.657,1.686 2.46,2.567 l -0.053,0.133 c -1.65,1.013 -1.993,1.306 -2.23,3.068 8.024,9.223 15.095,-8.244 8.026,-15.172 -13.304,-13.042 -31.328,-2.068 -31.621,15.46 -0.069,6.942 2.625,13.627 7.489,18.581 14.182,14.535 38.351,13.968 51.141,-0.803 28.264,-32.639 -0.217,-74.512 -37.091,-81.772 -57.897,-11.397 -103.758,26.26 -154.549,45.904 -28.9,11.177 -54.853,18.006 -85.151,18.884 -5.486,-4.64 -10.907,-8.528 -16.328,-13.506 35.98,0.259 61.937,-3.659 96.089,-16.517 12.284,-4.756 24.352,-10.052 36.17,-15.872 46.423,-22.91 82.352,-44.67 136.093,-26.975 1.83,-2.728 3.939,-5.317 5.966,-7.909 -4.496,-5.594 -12.475,-13.634 -17.758,-18.573 -28.993,-27.104 -64.524,-55.629 -100.944,-71.543 -33.13,-14.125 -69.765,-22.639 -104.583,-8.735 -31.39,12.443 -53.068,46.228 -39.615,79.577 8.255,20.463 30.868,34.212 52.492,25.164 10.256,-4.292 18.977,-15.867 14.123,-27.056 -3.753,-8.652 -16.49,-10.377 -20.273,-1.167 -0.134,0.32 -0.396,1.541 -0.572,2.056 -2.162,-4.038 -0.878,-8.512 2.111,-11.726 13.987,-15.041 34.735,0.927 34.656,18.233 0.139,22.894 -23.159,38.455 -44.4,37.644 -35.855,-1.368 -58.989,-30.688 -58.264,-65.382 1.084,-51.864 52.204,-79.946 98.429,-78.569 76.527,2.28 141.832,57.682 192.222,110.044 1.822,-2.024 3.017,-3.66 4.609,-5.832 -6.257,-6.044 -11.985,-12.691 -18.253,-18.733 -34.774,-33.514 -75.736,-66.174 -121.588,-82.642 -47.816,-17.173 -107.757,-17.132 -143.618,23.953 -14.227,16.401 -21.308,37.809 -19.665,59.459 1.44,19.64 9.454,36.653 24.248,49.883 24.018,21.481 63.671,22.596 85.241,-3.59 6.867,-8.321 10.054,-19.078 8.826,-29.796 -0.896,-8.523 -5.197,-16.322 -11.927,-21.628 -5.979,-4.861 -13.689,-7.06 -21.334,-6.086 -6.087,0.807 -12.012,3.783 -15.634,8.846 -3.098,4.413 -4.291,9.886 -3.31,15.188 0.787,4.223 3.509,9.287 7.3,11.433 5.578,3.156 6.622,1.102 11.018,-0.003 -2.172,7.273 -17.442,7.476 -22.928,3.07 -12.272,-9.858 -12.114,-27.22 -3.386,-39.258 5.837,-8.008 14.679,-13.298 24.495,-14.654 10.839,-1.59 22.332,0.823 31.158,7.45 10.545,7.95 17.498,19.765 19.327,32.844 4.503,34.465 -24.224,62.392 -57.061,66.295 -21.004,2.583 -42.163,-3.407 -58.695,-16.618 -5.868,-4.714 -10.886,-10.107 -15.13,-16.288 -28.472,-41.891 -19.242,-96.327 19.584,-128.26 22.362,-18.391 40.861,-23.25 69,-25.882 -15.027,-10.172 -45.477,-18.962 -63.462,-21.892 -37.675,-6.139 -79.288,-1.07 -113.47,16.39 -9.047,4.621 -16.827,10.385 -25.003,16.311 -1.222,-3.85 -2.387,-9.56 -3.34,-13.611 1.746,-1.521 5.104,-3.939 7.137,-5.287 53.129,-35.221 124.708,-37.275 182.603,-14.136 9.207,3.726 18.141,8.097 26.733,13.081 3.279,1.919 10.347,7.375 13.133,8.222 4.65,1.413 12.499,2.416 17.714,3.374 -28.232,-25.074 -75.043,-42.513 -112.108,-46.794 -37.32,-4.598 -75.189,0.975 -109.602,16.131 -9.752,4.38 -19.015,9.281 -27.416,15.957 -1.109,-3.906 -2.176,-9.673 -3.028,-13.743 -1.245,-6.334 -2.109,-12.938 -3.025,-19.34 l -0.337,-1.779 c -0.569,-3.073 -0.948,-10.023 -1.234,-13.412 l -0.174,-2.19 c 0.172,-3.518 -0.42,-14.081 -0.854,-17.591 l 0.022,-2.304 c -0.116,-5.108 -0.145,-10.218 -0.088,-15.327 l -0.21,-2.647 c 0.34,-3.615 0.118,-15.219 0.632,-17.719 l 0.131,-0.699 c -0.1,-2.942 0.631,-9.504 0.899,-12.688 l 0.225,-2.252 z"
     id="path5"
     style="fill:url(#gradient_0)" />
  <path
     fill="#fefffe"
     d="m 118.904,462.326 c 8.583,-80.531 49.817,-163.142 104.699,-221.981 55.3,-58.934 127.467,-99.332 206.616,-115.661 103.155,-20.664 212.106,-2.689 300.082,56.092 88.583,59.425 150.118,151.423 171.221,255.983 0.795,4.311 1.975,9.781 2.562,14.024 l 0.046,1.619 c 1.143,4.447 1.807,11.539 2.282,16.202 -50.015,-12.124 -85.68,-49.78 -128.699,-73.03 -19.948,-10.661 -41.614,-17.736 -64.01,-20.9 -57.644,-7.867 -106.018,8.817 -156.102,35.819 -48.345,26.065 -91.746,60.538 -150.223,49.283 -26.326,-5.239 -49.529,-20.635 -64.589,-42.854 -8.473,-12.765 -13.712,-30.68 -10.688,-45.951 1.949,-2.214 3.366,-7.655 3.591,-10.667 2.623,-2.588 3.758,-3.988 6.017,-6.928 2.152,-2.342 4.654,-5.482 6.745,-7.961 -2.447,-0.386 -2.158,-0.774 -3.663,0.248 -44.071,15.776 -71.769,60.263 -93.673,99.084 -7.638,13.538 -16.16,29.384 -25.77,41.311 -22.105,27.437 -54.696,43.479 -87.485,54.363 -6.782,2.251 -14.217,4.436 -20.807,6.914 l -0.174,-2.19 c 0.172,-3.518 -0.42,-14.081 -0.854,-17.591 l 0.022,-2.304 c -0.116,-5.108 -0.145,-10.218 -0.088,-15.327 l -0.21,-2.647 c 0.34,-3.615 0.118,-15.219 0.632,-17.719 l 0.131,-0.699 c -0.1,-2.942 0.631,-9.504 0.899,-12.688 l 0.225,-2.252 z"
     id="path6" />
  <path
     fill="#fefffe"
     d="m 117.639,473.918 c 33.35,-9.575 65.121,-28.05 91.669,-50.354 17.93,-15.064 33.802,-34.061 50.574,-50.667 34.478,-34.136 74.508,-68.689 124.726,-74.346 19.87,-2.238 39.911,1.137 56.812,12.083 2.789,1.807 6.41,5.191 9.152,7.416 3.223,3.764 5.528,6.662 8.205,10.835 9.258,14.335 9.536,33.78 -3.995,45.622 -9.1,7.964 -24.332,8.928 -32.458,-0.757 -4.661,-5.62 -5.817,-16.523 0.846,-21.209 3.944,-2.775 10.385,-4.271 13.758,0.278 2.863,3.861 -0.738,7.936 -2.454,11.803 l 1.178,0.51 -0.208,0.117 -0.885,-0.955 1.357,0.671 c 2.7,-2.019 4.733,-3.223 5.452,-6.725 1.374,-6.69 -4.098,-12.18 -10.631,-12.385 -9.133,-0.286 -14.422,6.409 -16.864,14.293 -3.534,-5.84 -9.713,-16.562 -15.629,-19.969 -0.119,-0.161 -0.238,-0.323 -0.356,-0.485 -11.443,-9.182 -20.758,-7.107 -32.752,-5.944 -2.084,1.17 -4.175,2.325 -6.274,3.468 l -5.097,3.431 -5.311,4.766 c -2.447,-0.386 -2.158,-0.774 -3.663,0.248 -44.071,15.776 -71.769,60.263 -93.673,99.084 -7.638,13.538 -16.16,29.384 -25.77,41.311 -22.105,27.437 -54.696,43.479 -87.485,54.363 -6.782,2.251 -14.217,4.436 -20.807,6.914 l -0.174,-2.19 c 0.172,-3.518 -0.42,-14.081 -0.854,-17.591 l 0.022,-2.304 c -0.116,-5.108 -0.145,-10.218 -0.088,-15.327 l -0.21,-2.647 c 0.34,-3.615 0.118,-15.219 0.632,-17.719 l 0.131,-0.699 c -0.1,-2.942 0.631,-9.504 0.899,-12.688 z"
     id="path7" />
  <defs
     id="defs8">
    <linearGradient
       id="gradient_1"
       gradientUnits="userSpaceOnUse"
       x1="98.912086"
       y1="479.54254"
       x2="376.74997"
       y2="398.79471">
      <stop
         offset="0"
         stop-color="#4C9CB5"
         id="stop7" />
      <stop
         offset="1"
         stop-color="#75BCCA"
         id="stop8" />
    </linearGradient>
  </defs>
  <path
     fill="url(#gradient_1)"
     d="m 116.028,527.554 c 2.948,-0.404 13.813,-3.367 17.015,-4.316 32.065,-9.696 67.665,-26.058 86.593,-54.861 6.551,-12.065 12.369,-24.731 18.463,-37.097 5.781,-11.73 8.322,-14.916 16.73,-24.8 12.712,-14.943 26.159,-28.635 41.888,-40.533 17.329,-13.108 36.749,-26.405 58.467,-30.467 3.476,-0.626 6.414,-2.166 9.952,-1.73 -2.084,1.17 -4.175,2.325 -6.274,3.468 l -5.097,3.431 -5.311,4.766 c -2.447,-0.386 -2.158,-0.774 -3.663,0.248 -44.071,15.776 -71.769,60.263 -93.673,99.084 -7.638,13.538 -16.16,29.384 -25.77,41.311 -22.105,27.437 -54.696,43.479 -87.485,54.363 -6.782,2.251 -14.217,4.436 -20.807,6.914 l -0.174,-2.19 c 0.172,-3.518 -0.42,-14.081 -0.854,-17.591 z"
     id="path8"
     style="fill:url(#gradient_1)" />
  <path
     fill="#fefffe"
     d="m 352.475,340.485 1.29,0.164 -5.311,4.766 c -2.447,-0.386 -2.158,-0.774 -3.663,0.248 -44.071,15.776 -71.769,60.263 -93.673,99.084 -7.638,13.538 -16.16,29.384 -25.77,41.311 -22.105,27.437 -54.696,43.479 -87.485,54.363 -6.782,2.251 -14.217,4.436 -20.807,6.914 l -0.174,-2.19 c 5.605,-2.31 16.485,-5.443 22.615,-7.683 22.488,-8.215 40.997,-15.922 60.148,-30.328 23.201,-17.453 31.185,-32.001 44.898,-55.885 20.213,-35.207 43.541,-77.876 79.908,-98.495 9.053,-5.133 18.255,-8.673 28.024,-12.269 z"
     id="path9" />
  <path
     fill="#8fc5d4"
     d="m 352.475,340.485 c 1.681,-1.214 4.434,-3.77 6.387,-3.267 l -5.097,3.431 z"
     id="path10" />
  <defs
     id="defs11">
    <linearGradient
       id="gradient_2"
       gradientUnits="userSpaceOnUse"
       x1="374.92889"
       y1="460.23419"
       x2="185.1142"
       y2="355.20612">
      <stop
         offset="0"
         stop-color="#2783A0"
         id="stop10" />
      <stop
         offset="1"
         stop-color="#6BAFC1"
         id="stop11" />
    </linearGradient>
  </defs>
  <path
     fill="url(#gradient_2)"
     d="m 117.414,476.17 c 41.811,-11.576 89.774,-35.001 119.63,-66.577 30.997,-32.781 56.235,-62.481 98.385,-81.784 26.796,-12.271 56.122,-22.086 85.716,-11.967 10.418,3.562 22.963,11.875 27.709,22.073 -1.889,-1.653 -2.112,-2.566 -4.617,-2.991 l -1.365,1.035 c -0.286,3.242 0.218,3.531 0.837,6.563 -8.355,-12.283 -19.463,-18.836 -34.188,-21.634 -34.38,-6.194 -71.142,11.923 -98.933,30.869 -15.299,10.431 -34.437,27.388 -46.611,41.262 -14.199,16.182 -23.419,26.121 -40.381,39.863 -26.863,21.765 -54.551,39.391 -87.698,50.108 -5.416,1.798 -13.832,4.809 -19.383,5.868 -0.1,-2.942 0.631,-9.504 0.899,-12.688 z"
     id="path11"
     style="fill:url(#gradient_2)" />
  <path
     fill="#4ea0b9"
     d="m 116.384,489.557 0.466,1.562 c 1.59,0.182 12.923,-3.785 15.249,-4.485 43.5,-13.09 76.663,-36.886 109.98,-67.121 -3.623,6.317 -8.747,19.386 -13.225,24.356 -23.927,26.559 -56.348,45.122 -90.134,56.146 -7.241,2.363 -13.697,4.869 -20.589,6.676 -0.789,0.208 -1.582,0.403 -2.379,0.585 0.34,-3.615 0.118,-15.219 0.632,-17.719 z"
     id="path12" />
  <path
     fill="#4ea0b9"
     d="m 115.962,509.923 c 49.438,-16.265 74.401,-24.348 112.187,-62.898 -3.282,7.663 -6.997,15.701 -11.869,22.55 -14.764,20.759 -39.714,34.895 -62.933,44.499 -9.198,3.805 -27.586,9.334 -37.297,11.176 -0.116,-5.108 -0.145,-10.218 -0.088,-15.327 z"
     id="path13" />
  <path
     fill="#0c6388"
     d="m 443.709,342.522 c -0.619,-3.032 -1.123,-3.321 -0.837,-6.563 l 1.365,-1.035 c 2.505,0.425 2.728,1.338 4.617,2.991 3.616,5.437 4.088,10.912 3.232,18.21 -1.343,11.44 -16.911,21.399 -25.091,10.055 -1.945,-2.698 -1.731,-7.037 0.611,-10.056 0.007,0.938 -0.037,1.252 -0.182,2.165 -1.383,8.695 8.487,11.157 13.933,5.63 6.066,-6.157 4.985,-13.99 2.352,-21.397 z"
     id="path14" />
  <path
     fill="#4ea0b9"
     d="m 365.136,333.75 c 11.994,-1.163 21.309,-3.238 32.752,5.944 0.118,0.162 0.237,0.324 0.356,0.485 0.428,1.892 6.33,7.057 8.418,10.459 -1.381,1.821 -1.231,2.267 -3.005,2.932 -3.586,-1.764 -2.706,-4.424 -5.418,-5.081 l -0.362,0.357 c -7.228,-5.344 -14.662,-9.299 -24.045,-7.734 -9.11,1.52 -17.335,7.923 -22.459,15.421 -7.058,10.327 -8.552,23.402 -6.272,35.524 3.145,16.721 14.003,29.646 27.834,38.952 20.969,14.109 45.077,17.644 69.66,12.648 43.192,-8.777 128.772,-52.699 160.523,-84.209 5.715,-5.672 9.337,-12.45 13.721,-19.074 l 0.616,0.097 c 1.021,-1.806 1.508,-2.85 2.304,-4.769 1.878,0.567 4.525,1.184 6.102,2.156 -0.806,1.913 -1.641,3.814 -2.504,5.703 l 0.389,0.472 0.4,0.016 c -4.95,13.639 -15.913,23.384 -25.539,33.175 27.494,-15.333 69.537,-27.661 101.101,-29.195 5.433,-0.22 10.874,-0.126 16.297,0.281 2.04,0.133 6.081,0.642 7.891,0.571 2.993,1.328 14.794,1.615 18.416,1.442 -2.074,-2.301 -5.114,-2.049 -7.933,-6.137 3.137,1.819 8.638,5.559 11.363,6.84 3.156,1.484 10.897,3.029 14.62,3.931 4.833,1.206 9.611,2.619 14.322,4.235 30.237,10.308 56.763,29.927 82.299,48.55 13.411,9.78 29.369,22.16 44.539,29.017 0.795,4.311 1.975,9.781 2.562,14.024 l 0.046,1.619 c 1.143,4.447 1.807,11.539 2.282,16.202 -50.015,-12.124 -85.68,-49.78 -128.699,-73.03 -19.948,-10.661 -41.614,-17.736 -64.01,-20.9 -57.644,-7.867 -106.018,8.817 -156.102,35.819 -48.345,26.065 -91.746,60.538 -150.223,49.283 -26.326,-5.239 -49.529,-20.635 -64.589,-42.854 -8.473,-12.765 -13.712,-30.68 -10.688,-45.951 1.949,-2.214 3.366,-7.655 3.591,-10.667 2.623,-2.588 3.758,-3.988 6.017,-6.928 2.152,-2.342 4.654,-5.482 6.745,-7.961 l 5.311,-4.766 5.097,-3.431 c 2.099,-1.143 4.19,-2.298 6.274,-3.468 z"
     id="path15" />
  <path
     fill="#fefffe"
     d="m 615.662,382.101 c 1.834,-0.996 3.715,-1.9 5.638,-2.711 12.233,-5.293 26.08,-9.331 38.892,-12.569 56.129,-14.186 106.078,-3.967 153.752,28.43 31.228,21.221 54.441,41.372 90.14,55.532 l 0.046,1.619 c -3.272,-0.165 -9.467,-3.209 -12.575,-4.552 -32.597,-14.082 -58.786,-38.458 -89.076,-56.604 -45.501,-27.258 -90.694,-34.007 -142.409,-21.879 -15.286,3.585 -29.588,8.937 -44.408,12.734 z"
     id="path16" />
  <path
     fill="#0c6388"
     d="m 616.839,340.374 c 12.291,-30.985 6.941,-60.278 -26.009,-74.875 -25.323,-11.219 -58.269,13.459 -53.239,40.794 1.034,6.163 10.321,13.47 16.545,9.39 -2.394,-0.922 -4.25,-0.456 -5.9,-3.183 -1.99,-3.288 -2.269,-7.992 -1.402,-11.638 1.143,-4.653 4.145,-8.634 8.304,-11.014 16.924,-9.738 35.817,13.093 28.063,31.507 -8.557,20.324 -29.979,28.857 -50.773,20.825 -11.098,-4.256 -20.002,-12.82 -24.687,-23.744 -13.345,-30.636 5.111,-64.069 34.54,-76.365 34.242,-14.307 69.621,3.424 82.945,37.124 7.83,20.12 9.277,45.242 -1.08,64.854 l -0.4,-0.016 -0.389,-0.472 c 0.863,-1.889 1.698,-3.79 2.504,-5.703 -1.577,-0.972 -4.224,-1.589 -6.102,-2.156 -0.796,1.919 -1.283,2.963 -2.304,4.769 z"
     id="path17" />
  <path
     fill="#fefffe"
     d="m 566.17,245.194 c 0.945,-0.015 1.887,0.026 2.83,0.07 16.226,0.752 29.886,10.135 40.548,21.8 -14.279,-8.734 -21.018,-13.437 -38.613,-11.628 -12.625,1.299 -24.114,8.482 -32.004,18.269 -6.895,8.552 -10.718,19.274 -9.5,30.311 0.73,6.616 3.737,13.077 9.118,17.162 4.153,3.153 9.679,5.014 14.902,4.11 3.463,-0.566 6.544,-2.525 8.526,-5.421 2.019,-2.904 3.541,-7.282 2.669,-10.825 -0.712,-2.892 -2.665,-4.484 -5.096,-5.978 l -0.539,-0.325 c -2.624,-0.125 -2.874,1.163 -4.688,0.787 -0.311,-0.064 -0.493,-1.031 -0.583,-1.3 0.209,-0.856 0.442,-1.326 0.999,-2.037 1.65,-2.105 5.126,-3.477 7.711,-3.78 3.043,-0.356 6.261,0.436 8.654,2.389 3.233,2.638 5.209,7.46 5.563,11.537 0.503,5.805 -1.963,11.508 -5.593,15.928 -5.111,6.224 -12.569,9.837 -20.532,10.576 -9.082,0.842 -18.538,-2.949 -25.46,-8.728 -8.175,-6.825 -12.475,-16.652 -13.306,-27.153 -1.003,-12.681 3.55,-25.094 11.781,-34.673 10.894,-12.678 26.066,-19.839 42.613,-21.091 z"
     id="path18" />
  <path
     fill="#0c6388"
     d="m 723.896,348.881 c -34.77,-29.644 -40.162,-41.133 -62.085,-80.025 -6.814,-12.327 -14.81,-23.962 -23.876,-34.741 -23.187,-27.303 -51.921,-43.829 -88.182,-47.116 -31.184,-2.827 -92.675,12.367 -95.188,50.977 -0.522,7.098 1.868,14.103 6.621,19.401 4.734,5.299 11.397,8.475 18.494,8.818 18.47,0.728 32.222,-20.711 19.923,-34.926 -7.692,-8.888 -25.125,7.962 -16.994,13.566 -0.671,-2.029 -1.487,-3.315 -1.009,-5.471 5.508,-7.901 15.678,2.63 12.388,9.595 -2.247,4.775 -8.891,7.65 -13.616,4.845 -14.052,-7.402 -5.877,-29.504 7.495,-32.104 23.679,-4.603 29.963,21.788 19.523,38.175 -4.572,7.197 -11.816,12.283 -20.138,14.137 -8.781,1.803 -17.918,-0.031 -25.323,-5.085 -7.819,-5.284 -13.2,-13.476 -14.945,-22.75 -2.066,-11.263 1.535,-23.443 8.051,-32.672 13.877,-19.654 39.906,-29.355 62.742,-33.368 25.401,-4.463 51.36,-1.89 74.895,8.602 36.079,16.083 59.038,43.652 77.735,77.448 7.007,12.664 13.812,26.619 22.346,38.285 12.656,17.303 24.261,27.499 41.626,39.714 2.819,4.088 5.859,3.836 7.933,6.137 -3.622,0.173 -15.423,-0.114 -18.416,-1.442 z"
     id="path19" />
  <defs
     id="defs20">
    <linearGradient
       id="gradient_3"
       gradientUnits="userSpaceOnUse"
       x1="333.17706"
       y1="431.88165"
       x2="221.19156"
       y2="339.59802">
      <stop
         offset="0"
         stop-color="#3287A2"
         id="stop19" />
      <stop
         offset="1"
         stop-color="#64A8BF"
         id="stop20" />
    </linearGradient>
  </defs>
  <path
     fill="url(#gradient_3)"
     d="m 118.904,462.326 c 6.674,-1.328 17.425,-6.537 23.979,-9.25 39.914,-16.748 70.212,-44.803 99.571,-75.744 45,-47.426 126.363,-112.688 195.784,-77.332 -1.443,2.13 -2.068,2.298 -2.144,4.602 l 1.452,2.62 c 3.019,1.742 11.697,6.931 13.219,9.964 l -0.193,0.864 c -2.742,-2.225 -6.363,-5.609 -9.152,-7.416 -16.901,-10.946 -36.942,-14.321 -56.812,-12.083 -50.218,5.657 -90.248,40.21 -124.726,74.346 -16.772,16.606 -32.644,35.603 -50.574,50.667 -26.548,22.304 -58.319,40.779 -91.669,50.354 z"
     id="path20"
     style="fill:url(#gradient_3)" />
  <defs
     id="defs22">
    <linearGradient
       id="gradient_4"
       gradientUnits="userSpaceOnUse"
       x1="405.45474"
       y1="409.16183"
       x2="435.42874"
       y2="299.93161">
      <stop
         offset="0"
         stop-color="#00567F"
         id="stop21" />
      <stop
         offset="1"
         stop-color="#2885A1"
         id="stop22" />
    </linearGradient>
  </defs>
  <path
     fill="url(#gradient_4)"
     d="m 438.238,300 c 14.386,8.054 27.044,21.418 32.02,37.414 6.17,19.834 -3.351,43.837 -24.464,49.54 -7.373,2.048 -15.259,1.058 -21.897,-2.748 -3.615,-2.087 -5.793,-4.128 -8.672,-7.13 -0.586,3.107 -1.083,6.201 -2.247,9.152 -4.607,11.682 -16.421,20.645 -29.393,18.052 -7.279,-1.526 -13.6,-6 -17.459,-12.358 -3.046,-5.01 -3.989,-11.019 -2.624,-16.721 1.356,-5.776 4.964,-10.771 10.02,-13.875 4.073,-2.463 8.955,-3.479 13.585,-2.119 4.155,1.233 7.631,4.103 9.63,7.95 5.601,11.044 -2.225,24.984 -15.064,20.841 -4.093,-1.32 -7.44,-6.354 -5.659,-10.723 0.711,-1.768 2.142,-3.15 3.935,-3.797 4.102,-1.476 9.168,0.884 8.936,5.439 l -0.69,0.319 c -0.415,-1.659 -0.987,-3.244 -2.779,-3.819 -9.158,-2.94 -10.495,9.314 -0.443,10.027 2.015,0.153 4.006,-0.507 5.53,-1.834 4.759,-4.146 4.257,-13.41 -0.06,-17.629 -5.211,-5.091 -13.275,-2.923 -17.919,1.805 -7.012,7.139 -4.767,19.076 2.282,25.284 9.129,8.039 22.488,5.212 29.562,-4.053 4.225,-5.425 5.814,-11.064 4.883,-17.862 -1.001,-7.19 -3.127,-12.241 -7.698,-17.904 -1.05,-1.3 -2.834,-3.164 -3.676,-4.405 l 0.362,-0.357 c 2.712,0.657 1.832,3.317 5.418,5.081 1.774,-0.665 1.624,-1.111 3.005,-2.932 -2.088,-3.402 -7.99,-8.567 -8.418,-10.459 5.916,3.407 12.095,14.129 15.629,19.969 2.442,-7.884 7.731,-14.579 16.864,-14.293 6.533,0.205 12.005,5.695 10.631,12.385 -0.719,3.502 -2.752,4.706 -5.452,6.725 l -1.357,-0.671 0.885,0.955 0.208,-0.117 -1.178,-0.51 c 1.716,-3.867 5.317,-7.942 2.454,-11.803 -3.373,-4.549 -9.814,-3.053 -13.758,-0.278 -6.663,4.686 -5.507,15.589 -0.846,21.209 8.126,9.685 23.358,8.721 32.458,0.757 13.531,-11.842 13.253,-31.287 3.995,-45.622 -2.677,-4.173 -4.982,-7.071 -8.205,-10.835 l 0.193,-0.864 c -1.522,-3.033 -10.2,-8.222 -13.219,-9.964 l -1.452,-2.62 c 0.076,-2.304 0.701,-2.472 2.144,-4.602 z"
     id="path22"
     style="fill:url(#gradient_4)" />
  <path
     fill="#fefffe"
     d="m 331.51,214.298 c 1.024,-0.137 2.039,0.312 2.627,1.161 0.587,0.85 0.649,1.958 0.16,2.868 -0.489,0.91 -1.448,1.469 -2.481,1.447 -1.436,-0.031 -2.607,-1.162 -2.687,-2.596 -0.08,-1.434 0.957,-2.689 2.381,-2.88 z"
     id="path24" />
  <path
     fill="#fefffe"
     d="m 213.458,549.029 c 18.977,-26.561 43.381,-55.516 74.084,-68.152 16.834,-7.047 35.79,-7.053 52.628,-0.016 18.211,7.613 32.402,29.488 24.069,48.778 -3.365,7.803 -9.771,13.894 -17.734,16.863 -14.297,5.442 -31.866,0.246 -37.369,-15.181 -4.026,-11.284 2.115,-23.854 13.805,-27.111 4.644,-1.285 9.61,-0.643 13.775,1.781 4.298,2.559 7.422,6.702 8.7,11.538 4.127,15.82 -18.33,24.476 -21.659,8.315 -1.402,-6.81 9.439,-7.853 9.502,-1.293 -0.981,1.352 -0.366,0.89 -1.864,1.493 -2.054,-0.765 -1.582,-2.759 -3.87,-3.957 -3.342,2.962 -0.558,7.836 3.288,7.88 4.008,0.046 7.477,-3.386 7.138,-7.441 -0.282,-9.504 -14.529,-10.884 -18.583,-3.832 -6.876,11.96 5.642,23.849 17.868,21.108 8.178,-1.727 13.502,-6.449 14.942,-14.817 2.106,-12.237 -3.724,-21.968 -14.104,-28.023 -11.844,-6.908 -27.332,-7.543 -40.453,-4.034 -25.163,6.729 -44.063,27.406 -60.307,46.648 -2.338,2.771 -4.736,5.616 -6.455,8.762 5.481,-0.27 10.248,-0.262 15.716,-0.209 l -2.194,-2.579 c -0.294,-1.937 -0.328,-1.189 0.799,-3.207 l 2.693,-2.611 c 1.77,-1.993 3.498,-3.964 5.363,-5.873 l 3.328,-3.92 c 1.087,-1.366 2.874,-2.889 4.195,-4.099 l 2.02,-2.119 c 1.383,-1.427 2.779,-2.706 4.232,-4.052 l 2.066,-2.348 c 0.36,-0.084 3.16,-1.574 3.669,-1.838 1.245,0.057 0.636,0.074 1.828,-0.044 l 0.36,-1.691 0.888,-0.499 c 1.309,0.995 2.167,4.807 2.704,6.449 3.686,11.263 8.506,26.015 14.984,35.853 3.186,0.917 7.034,2.13 10.225,2.768 -7.122,-9.014 -21.856,-38.512 -21.741,-49.659 l 0.417,-0.189 c 2.336,3.736 5.236,12.972 7.147,17.609 4.458,10.812 10.508,23.852 17.205,33.382 3.303,1.046 6.618,2.052 9.945,3.017 -9.789,-13.269 -17.351,-26.553 -23.243,-42.024 -1.337,-3.51 -4.991,-12.473 -4.025,-16.065 l 0.78,0.133 c 2.873,5.494 5.987,16.665 9.04,23.423 5.303,11.735 12.272,24.161 19.243,34.966 l 8.564,3.277 c -3.923,-4.981 -6.386,-10.3 -10.014,-15.066 7.208,3.905 8.236,8.557 11.78,15.941 3.159,1.78 5.412,2.995 8.713,4.458 -2.111,-3.756 -7.714,-12.559 -7.871,-16.06 l 0.297,-0.291 c 2.581,1.462 8.185,13.974 10.173,17.828 3.359,1.855 6.242,3.433 9.72,5.034 -2.586,-3.844 -12.698,-19.185 -12.008,-22.749 1.892,0.475 2.851,2.654 3.942,4.378 4.067,6.431 7.739,16.417 13.708,21.167 3.09,2.46 8.583,5.563 11.998,7.77 -3.875,-4.731 -20.944,-29.833 -21.08,-34.575 l 0.353,-0.748 c 0.424,0.13 0.849,0.26 1.273,0.39 4.804,9.006 16.435,26.274 20.588,34.319 0.364,0.705 0.714,1.418 1.049,2.138 4.456,2.934 8.673,5.715 12.983,8.835 5.284,3.825 14.837,13.639 20.169,15.807 1.508,0.763 1.545,0.74 3.215,1.099 0.668,-0.192 14.175,-12.11 15.432,-13.376 7.144,-7.2 24.258,-13.773 30.579,-19.682 2.188,-0.515 2.535,-0.453 4.059,-1.96 4.203,-1.583 9.867,-4.192 13.886,-5.468 18.395,-5.841 46.824,-10.215 64.811,-1.971 0.371,0.171 0.739,0.347 1.106,0.527 -51.426,-9.321 -88.811,8.694 -125.759,42.993 2.392,0.985 5.066,2.009 7.369,3.138 19.83,-19.252 38.588,-31.69 65.485,-39.758 35.432,-10.627 75.464,-4.091 92.978,31.897 3.62,7.439 5.585,16.683 5.457,25.037 -0.267,14.209 -6.217,27.719 -16.52,37.507 -21.054,20.294 -46.669,15.22 -64.873,-5.634 -7.894,-9.045 -14.479,-19.354 -13.359,-31.63 2.964,-32.494 40.306,-50.798 63.521,-23.933 6.786,7.815 10.133,18.036 9.283,28.351 -2.135,25.579 -32.669,36.462 -47.865,16.907 -4.415,-5.6 -6.309,-12.781 -5.228,-19.83 2.085,-13.696 12.438,-19.053 25.067,-14.268 5.867,3.912 6.789,5.643 7.538,12.554 l -0.295,0.278 c -1.479,-3.532 -2.382,-7.774 -6.603,-8.781 -6.481,-1.677 -14.673,3.8 -15.589,10.443 -1.317,7.719 5.222,16.634 13.327,17.003 19.375,0.881 22.043,-21.246 11.383,-32.853 -4.71,-5.034 -11.285,-7.908 -18.18,-7.944 -4.723,-0.065 -10.178,1.413 -13.635,4.746 -22.413,15.808 -7.284,53.727 18.304,56.484 20.479,2.206 37.962,-12.836 39.702,-33.12 2.847,-29.748 -19.463,-51.581 -48.179,-54.029 -29.616,-2.524 -55.956,8.731 -78.362,27.741 -3.602,3.056 -7.003,6.341 -10.184,9.834 17.71,8.926 34.552,19.478 50.309,31.52 7.888,6.079 16.286,13.546 24.006,20.035 10.644,8.835 21.128,17.861 31.448,27.072 4.037,-6.226 5.817,-8.741 11.989,-13.038 -3.253,4.664 -7.545,8.947 -11.152,13.997 5.039,4.811 12.131,11.641 16.556,16.934 5.317,-5.039 10.315,-10.179 15.9,-14.92 11.668,-9.904 24.395,-18.027 37.128,-26.463 l 1.167,0.008 0.545,-0.799 c 9.149,-5.653 21.348,-11.302 30.963,-16.312 6.5,-3.093 12.855,-6.888 19.426,-9.792 6.622,-2.927 13.585,-5.037 20.226,-8.04 l 1.387,-0.135 c 4.978,-1.68 15.904,-4.369 19.794,-6.229 9.496,-4.541 15.189,-18.955 23.774,-25.311 l 0.589,-0.428 c -4.104,9.179 -12.137,18.276 -19.658,24.807 3.441,-0.625 17.973,-1.827 19.56,-3.547 l 0.809,0.515 c 8.311,0.054 16.23,-0.904 24.566,-0.036 11.106,-15.816 14.691,-28.671 11.942,-48.246 -1.746,-12.428 -7.366,-15.878 -10.905,-24.665 18.783,17.434 16.879,52.887 0.707,72.546 -0.15,0.151 -0.3,0.303 -0.451,0.455 10.542,1.037 16.554,1.761 26.873,4.094 8.309,-16.05 10.527,-30.221 5.151,-47.936 -1.927,-6.351 -6.298,-14.806 -10.853,-19.698 -2.574,-2.764 -6.077,-5.32 -8.557,-8.321 25.705,13.562 29.167,50.542 16.279,74.379 l -1.017,1.86 c 7.81,2.047 13.396,4.002 20.89,7.134 8.986,-14.882 12.889,-26.916 8.717,-44.569 -2.781,-11.769 -9.354,-18.348 -17.91,-26.329 8.95,4.667 15.335,12.64 18.375,22.219 4.351,14.152 2.92,29.452 -3.98,42.551 -1.033,1.971 -2.754,4.749 -4.069,6.583 7.072,3.769 14.093,7.633 21.06,11.591 8.594,-12.969 11.798,-30.046 8.703,-45.225 -0.86,-4.242 -2.313,-8.34 -4.316,-12.176 -1.3,-2.449 -4.833,-6.615 -5.07,-7.92 1.352,10e-4 1.669,0.256 2.64,1.271 13.951,14.591 11.684,49.959 -0.915,64.698 12.367,7.801 24.779,18.455 34.801,29.181 11.664,-18.704 24.035,-47.621 15.52,-69.408 l -0.574,-1.479 0.617,-0.663 c 1.411,0.686 1.66,1.682 2.187,3.396 5.922,19.262 -2.105,41.965 -11.099,59.043 -1.837,3.488 -3.609,7.025 -5.971,10.083 1.435,1.443 3.502,3.661 4.968,4.952 -2.284,4.159 -4.852,9.125 -7.361,13.079 -50.87,-65.823 -117.617,-72.361 -191.066,-44.636 6.688,-0.916 13.962,-2.572 20.675,-2.624 44.346,-0.3 91.385,32.297 98.182,77.794 2.405,16.093 -2.132,36.694 -12.222,49.642 -21.72,27.871 -61.199,35.619 -89.746,12.931 -10.781,-8.595 -17.687,-21.137 -19.186,-34.842 -2.287,-22.489 15.642,-45.422 38.491,-47.499 9.465,-0.831 18.868,2.165 26.108,8.318 11.167,9.377 15.855,30.38 5.915,41.858 -3.429,3.938 -8.356,6.253 -13.577,6.379 -13.987,0.427 -23.965,-13.154 -14.967,-25.067 3.068,-4.062 9.124,1.191 12.409,-0.149 0.98,-1.991 0.731,-0.95 0.632,-3.276 -2.765,-5.305 -10.627,-5.959 -14.779,-2.692 -15.963,12.558 -7.176,34.799 11.441,38.043 8.118,1.477 16.488,-0.399 23.199,-5.199 19.14,-13.816 17.066,-41.299 3.731,-57.571 -37.581,-45.862 -105.031,-24.107 -144.376,7.551 -17.318,13.934 -31.557,27.019 -44.121,44.886 33.913,31.409 21.861,90.125 -27.087,94.324 -31.843,2.731 -56.827,-38.573 -33.674,-61.295 5.443,-5.268 12.787,-8.108 20.358,-7.873 6.221,0.146 11.708,2.64 15.985,7.149 4.337,4.573 6.674,9.603 6.238,16.073 -0.229,3.399 -1.532,7.197 -4.167,9.491 -2.506,2.18 -6.315,3.597 -9.647,3.176 -3.004,-0.379 -5.669,-2.25 -7.374,-4.705 -1.006,-1.447 -2.055,-3.679 -1.757,-5.5 0.077,-0.473 0.281,-0.754 0.509,-1.142 1.277,-0.524 1.519,-0.473 2.897,-0.256 0.861,0.827 1.657,1.686 2.46,2.567 l -0.053,0.133 c -1.65,1.013 -1.993,1.306 -2.23,3.068 8.024,9.223 15.095,-8.244 8.026,-15.172 -13.304,-13.042 -31.328,-2.068 -31.621,15.46 -0.069,6.942 2.625,13.627 7.489,18.581 14.182,14.535 38.351,13.968 51.141,-0.803 28.264,-32.639 -0.217,-74.512 -37.091,-81.772 -57.897,-11.397 -103.758,26.26 -154.549,45.904 -28.9,11.177 -54.853,18.006 -85.151,18.884 -5.486,-4.64 -10.907,-8.528 -16.328,-13.506 35.98,0.259 61.937,-3.659 96.089,-16.517 12.284,-4.756 24.352,-10.052 36.17,-15.872 46.423,-22.91 82.352,-44.67 136.093,-26.975 1.83,-2.728 3.939,-5.317 5.966,-7.909 -4.496,-5.594 -12.475,-13.634 -17.758,-18.573 -28.993,-27.104 -64.524,-55.629 -100.944,-71.543 -33.13,-14.125 -69.765,-22.639 -104.583,-8.735 -31.39,12.443 -53.068,46.228 -39.615,79.577 8.255,20.463 30.868,34.212 52.492,25.164 10.256,-4.292 18.977,-15.867 14.123,-27.056 -3.753,-8.652 -16.49,-10.377 -20.273,-1.167 -0.134,0.32 -0.396,1.541 -0.572,2.056 -2.162,-4.038 -0.878,-8.512 2.111,-11.726 13.987,-15.041 34.735,0.927 34.656,18.233 0.139,22.894 -23.159,38.455 -44.4,37.644 -35.855,-1.368 -58.989,-30.688 -58.264,-65.382 1.084,-51.864 52.204,-79.946 98.429,-78.569 76.527,2.28 141.832,57.682 192.222,110.044 1.822,-2.024 3.017,-3.66 4.609,-5.832 -6.257,-6.044 -11.985,-12.691 -18.253,-18.733 -34.774,-33.514 -75.736,-66.174 -121.588,-82.642 -47.816,-17.173 -107.757,-17.132 -143.618,23.953 -14.227,16.401 -21.308,37.809 -19.665,59.459 1.44,19.64 9.454,36.653 24.248,49.883 24.018,21.481 63.671,22.596 85.241,-3.59 6.867,-8.321 10.054,-19.078 8.826,-29.796 -0.896,-8.523 -5.197,-16.322 -11.927,-21.628 -5.979,-4.861 -13.689,-7.06 -21.334,-6.086 -6.087,0.807 -12.012,3.783 -15.634,8.846 -3.098,4.413 -4.291,9.886 -3.31,15.188 0.787,4.223 3.509,9.287 7.3,11.433 5.578,3.156 6.622,1.102 11.018,-0.003 -2.172,7.273 -17.442,7.476 -22.928,3.07 -12.272,-9.858 -12.114,-27.22 -3.386,-39.258 5.837,-8.008 14.679,-13.298 24.495,-14.654 10.839,-1.59 22.332,0.823 31.158,7.45 10.545,7.95 17.498,19.765 19.327,32.844 4.503,34.465 -24.224,62.392 -57.061,66.295 -21.004,2.583 -42.163,-3.407 -58.695,-16.618 -5.868,-4.714 -10.886,-10.107 -15.13,-16.288 -28.472,-41.891 -19.242,-96.327 19.584,-128.26 22.362,-18.391 40.861,-23.25 69,-25.882 -15.027,-10.172 -45.477,-18.962 -63.462,-21.892 -37.675,-6.139 -79.288,-1.07 -113.47,16.39 -9.047,4.621 -16.827,10.385 -25.003,16.311 -1.222,-3.85 -2.387,-9.56 -3.34,-13.611 1.746,-1.521 5.104,-3.939 7.137,-5.287 53.129,-35.221 124.708,-37.275 182.603,-14.136 9.207,3.726 18.141,8.097 26.733,13.081 3.279,1.919 10.347,7.375 13.133,8.222 4.65,1.413 12.499,2.416 17.714,3.374 -28.232,-25.074 -75.043,-42.513 -112.108,-46.794 -37.32,-4.598 -75.189,0.975 -109.602,16.131 -9.752,4.38 -19.015,9.281 -27.416,15.957 -1.109,-3.906 -2.176,-9.673 -3.028,-13.743 1.07,-2.212 7.039,-4.849 9.403,-6.249 25.601,-15.168 53.328,-21.951 82.403,-26.588 z"
     id="path33" />
  <path
     fill="#4ea0b9"
     d="m 269.077,517.321 c 0.36,-0.084 3.16,-1.574 3.669,-1.838 1.245,0.057 0.636,0.074 1.828,-0.044 1.469,3.471 2.515,7.771 3.735,11.412 3.373,10.068 6.361,18.896 12.198,27.869 -2.602,-0.656 -5.921,-1.403 -8.425,-2.182 -4.765,-10.605 -9.947,-24.023 -13.005,-35.217 z"
     id="path34" />
  <path
     fill="#4ea0b9"
     d="m 262.779,523.721 c 1.383,-1.427 2.779,-2.706 4.232,-4.052 3.378,10.238 7.516,22.38 12.016,32.246 -2.159,-0.428 -4.403,-0.837 -6.538,-1.335 -3.082,-8.805 -7.587,-17.939 -9.71,-26.859 z"
     id="path35" />
  <path
     fill="#4ea0b9"
     d="m 256.564,529.939 c 1.087,-1.366 2.874,-2.889 4.195,-4.099 3.322,8.025 5.528,16.922 9.866,24.406 -2.341,-0.279 -4.427,-0.479 -6.734,-1.005 -2.427,-5.426 -6.611,-13.655 -7.327,-19.302 z"
     id="path36" />
  <path
     fill="#4ea0b9"
     d="m 254.213,534.345 0.849,0.129 c 1.963,4.633 4.37,10.221 6.841,14.588 -2.09,-0.059 -6.691,0.17 -8.049,-1.218 l -0.69,0.601 c -1.717,-2.932 -3.481,-5.837 -5.291,-8.713 1.77,-1.993 3.498,-3.964 5.363,-5.873 z"
     id="path37" />
  <path
     fill="#b9e0ee"
     d="m 253.236,533.859 0.977,0.486 -4.35,4.572 c 1.322,2.849 2.881,6.027 3.991,8.927 l -0.69,0.601 c -1.717,-2.932 -3.481,-5.837 -5.291,-8.713 1.77,-1.993 3.498,-3.964 5.363,-5.873 z"
     id="path38" />
  <path
     fill="#4ea0b9"
     d="m 245.18,542.343 2.693,-2.611 c 1.81,2.876 3.574,5.781 5.291,8.713 -2.092,0.085 -3.021,0.235 -5.028,-0.229 -1.458,-1.038 -2.03,-3.804 -2.956,-5.873 z"
     id="path39" />
  <path
     fill="#044c75"
     d="m 682.31,674.716 c 0.197,-0.003 0.395,-0.01 0.592,-0.01 25.324,-0.014 50.307,8.345 68.434,26.45 12.754,12.738 21.1,30.553 21.065,48.752 -0.027,14.176 -5.996,29.151 -16.168,39.093 -9.979,9.754 -23.262,15.312 -37.254,14.981 -11.994,-0.284 -24.838,-5.214 -33.136,-14.045 -6.766,-7.279 -10.367,-16.944 -10.016,-26.875 0.287,-8.484 3.687,-17.391 10.026,-23.17 5.707,-5.203 13.357,-8.326 21.14,-7.824 6.128,0.395 12.308,3.247 16.284,7.979 3.233,3.847 4.587,8.77 4.14,13.746 -0.309,3.429 -1.896,6.705 -4.57,8.909 -2.576,2.148 -5.94,3.107 -9.262,2.641 -2.929,-0.41 -5.445,-1.631 -7.141,-4.118 -1.013,-1.486 -1.72,-3.438 -1.328,-5.236 0.399,-1.831 1.441,-4.314 3.13,-5.297 0.739,-0.431 1.004,-0.104 1.745,0.145 1.37,2.199 -0.232,4.451 0.903,6.711 0.501,0.996 1.89,1.799 2.971,2.001 1.703,0.317 3.345,-0.459 4.582,-1.579 1.967,-1.781 3.126,-3.763 3.169,-6.459 0.052,-3.336 -1.457,-5.932 -3.829,-8.175 -3.329,-3.146 -7.673,-4.566 -12.216,-4.381 -5.833,0.211 -11.335,2.762 -15.264,7.078 -4.753,5.237 -6.779,12.539 -6.383,19.513 0.469,8.254 4.026,15.815 10.274,21.266 8.6,7.503 19.496,9.74 30.61,8.919 l 0.484,-0.039 c 10.835,-0.975 21.071,-6.646 27.998,-14.971 8.578,-10.309 11.741,-24.236 10.38,-37.414 -1.714,-16.595 -10.94,-31.566 -23.782,-41.936 -19.63,-15.851 -45.538,-20.496 -70.135,-17.692 -50.42,5.746 -95.447,42.734 -126.114,81.165 l -6.541,-3.393 c 4.285,-6.383 9.528,-12.289 14.69,-17.977 34.585,-38.111 77.904,-66.208 130.522,-68.758 z"
     id="path40" />
  <path
     fill="#fefffe"
     d="m 704.837,524.689 c -11.008,-16.528 -21.651,-28.892 -36.124,-42.911 -23.53,-22.793 -58.189,-35.676 -88.205,-16.859 -11.319,7.095 -20.087,22.802 -11.228,35.167 8.258,11.951 28.904,8.637 30.214,-6.539 0.39,-4.245 -1.004,-8.461 -3.847,-11.637 -7.094,-7.866 -19.101,-3.076 -19.915,7.103 -0.728,9.101 15.718,14.8 14.831,4.299 l -0.542,-0.588 c -3.799,1.217 -3.375,3.97 -7.464,2.738 -1.754,-1.727 -2.792,-3.479 -2.797,-5.973 -0.004,-1.664 1.037,-3.936 2.303,-4.856 6.22,-4.497 13.606,4.377 11.145,10.582 -1.128,2.842 -3.144,4.865 -5.951,6.048 -6.076,2.561 -11.861,-2.217 -13.794,-7.864 -3.216,-9.396 4.334,-19.667 13.245,-22.367 10.38,-2.894 21.352,5.238 23.643,15.306 1.571,6.72 0.274,13.79 -3.582,19.514 -19.658,29.481 -55.836,14.246 -61.216,-16.674 -1.5,-10.526 1.405,-23.458 8.138,-31.816 28.647,-35.56 75.473,-23.371 106.856,0.967 26.616,20.641 40.728,44.174 59.381,71.479 0.828,1.213 5.827,5.204 7.463,6.756 27.878,0.703 52.638,12.96 77.083,25.058 26.514,13.121 50.46,31.749 79.424,39.122 3.622,0.922 10.967,0.982 13.996,2.203 -1.237,4.46 -2.043,8.257 -2.957,12.764 -40.659,-7.176 -61.412,-25.655 -97.219,-44.515 -18.092,-9.529 -39.329,-17.967 -59.291,-22.428 5.451,10.865 8.165,20.079 4.758,32.34 -3.015,10.666 -10.103,19.719 -19.735,25.205 -10.513,5.976 -22.968,7.536 -34.63,4.336 -15.424,-4.392 -27.897,-19.565 -23.011,-36.109 4.841,-16.398 26.045,-12.672 36.313,-4.315 1.96,1.595 4.735,5.363 3.476,7.975 -1.896,-1.418 -2.744,-5.326 -4.552,-6.944 -5.785,-5.178 -15.581,-4.82 -20.722,1.105 -2.684,2.97 -3.515,7.998 -2.898,11.912 2.263,14.352 17.77,18.185 29.994,15.823 8.43,-1.629 15.606,-6.054 20.272,-12.98 4.212,-6.191 5.707,-13.836 4.14,-21.158 -6.276,-30.119 -43.187,-37.657 -68.919,-31.248 -27.09,6.747 -52.008,20.904 -73.193,39.016 -4.154,3.551 -9.535,8.425 -12.422,12.985 1.421,1.998 3.039,4.02 4.545,5.968 18.923,-21.362 55.114,-43.936 83.327,-50.088 15.206,-3.423 30.836,-2.585 44.358,5.883 10.952,6.859 19.242,22.209 11.031,34.347 -4.649,6.872 -10.925,8.647 -18.645,10.212 5.752,-3.489 10.142,-5.814 10.207,-13.455 0.153,-18.088 -20.265,-24.512 -35.099,-23.601 -17.674,1.085 -33.5,8.428 -48.446,17.211 -16.692,9.809 -32.086,20.489 -45.21,34.756 -10.677,-23.409 -37.744,-39.704 -62.538,-43.432 -39.788,-5.982 -81.709,9.68 -113.821,32.607 -3.623,2.586 -7.241,5.179 -10.855,7.774 -2.227,-1.921 -4.461,-3.401 -6.869,-5.074 -0.35,-1.929 0.766,-0.286 2.038,-2.82 -5.479,-11.17 -12.567,-21.566 -19.333,-31.967 -2.32,-3.565 -11.941,-15.73 -10.782,-19.6 3.872,1.058 29.266,43.238 33.048,50.117 l 3.945,-2.736 c -8.612,-17.288 -19.411,-32.962 -30.16,-48.95 -0.659,-0.981 -0.973,-1.966 -0.908,-3.147 l 0.785,-0.326 c 4.321,2.379 30.218,43.06 33.112,50.301 l 4.939,-3.408 c -5.669,-9.622 -11.78,-18.977 -18.314,-28.033 -5.665,-7.849 -13.91,-16.702 -17.514,-25.332 3.433,3.365 5.882,7.667 9.056,11.122 11.581,12.606 20.937,25.728 29.264,40.71 1.6,-1.158 3.766,-2.414 5.48,-3.473 -2.273,-3.684 -17.229,-25.843 -17.582,-27.288 l 0.512,-0.486 c 4.055,0.752 16.614,22.745 18.431,27.037 1.518,-0.98 3.607,-2.112 5.21,-3.047 -2.398,-4.272 -12.967,-19.302 -12.836,-22.074 l 1.124,0.368 c 4.285,4.522 10.76,15.268 12.86,21.056 l 5.58,-2.888 c -2.233,-3.62 -10.403,-16.372 -10.725,-19.669 l 0.695,-0.308 c 2.722,1.248 10.055,15.763 11.665,19.105 l 6.624,-3.431 c -1.177,-1.661 -11.87,-16.391 -12.05,-17.299 1.588,-1.259 0.832,-1.172 2.313,-1.072 3.982,5.707 8.099,11.556 11.218,17.773 l 6.232,-2.655 c -1.766,-2.731 -13.351,-17.563 -13.433,-18.332 l 1.85,-1.571 0.823,0.134 c 4.681,6.249 9.08,12.162 13.242,18.778 l 5.783,-2.489 c -2.912,-3.061 -15.456,-18.211 -15.591,-21.514 l 0.697,-0.273 c 5.391,3.369 13.645,18.672 17.647,20.682 2.023,-0.23 2.004,-0.3 3.9,-1.17 l -0.1,-0.71 c -2.006,-2.056 -18.997,-22.621 -19.34,-24.386 l 0.576,-0.328 c 5.149,2.062 15.846,19.646 20.546,24.542 1.166,0.295 2.847,0.053 3.479,-1.046 -2.173,-5.245 -22.278,-27.526 -23.222,-30.888 l 0.585,-0.553 c 5.107,3.438 20.487,25.755 24.515,31.67 l 5.913,-1.817 c -9.616,-11.604 -18.564,-23.517 -29.013,-34.461 -1.451,-1.519 -2.58,-3.504 -3.516,-5.377 10.164,7.768 28.015,28.751 35.328,39.521 2.078,-0.546 4.237,-1.04 6.331,-1.548 -9.609,-16.155 -36.616,-48.063 -54.503,-54.484 -6.678,-2.436 -13.33,-2.716 -19.908,0.3 -9.679,4.439 -13.432,16.31 -8.817,25.725 3.568,7.279 13.881,12.074 21.464,7.505 9.299,-5.604 10.738,-19.324 -1.646,-21.787 -4.757,-0.745 -11.061,3.287 -10.966,8.452 0.121,6.665 8.947,9.073 13.023,4.358 0.176,-1.933 0.338,-0.987 -0.865,-2.854 l -0.918,-0.195 c -0.837,0.813 -1.684,1.615 -2.542,2.406 -2.544,0.242 -3.777,-1.511 -3.879,-3.919 2.098,-4.164 8.641,-3.943 9.799,0.907 0.892,3.74 -2.764,8.699 -6.616,8.885 -10.542,0.942 -17.352,-13.872 -9.535,-21.163 11.678,-10.893 29.691,0.173 29.785,15.111 0.089,6.38 -2.444,12.517 -7.008,16.976 -18.591,18.106 -51.896,0.556 -50.792,-24.177 0.399,-8.942 3.681,-18.485 10.621,-24.452 25.513,-21.938 55.614,-0.288 73.545,20.269 3.159,3.621 5.696,7.107 8.724,10.409 4.311,1.948 19.658,24.781 23.015,29.988 9.38,-0.277 17.937,-0.308 27.319,0.83 2.516,0.305 7.947,2.708 9.627,2.652 6.081,-0.203 12.651,4.877 18.196,5.729 l 0.326,-0.33 c -9.6,-11.16 -12.347,-25.192 -20.314,-36.974 -0.449,-0.664 -3.327,0.739 -5.122,-0.022 l -0.326,-1.178 c 1.944,-1.41 6.754,-1.67 10.022,-4.603 3.705,-3.327 5.135,-10.596 7.907,-12.683 0.999,-1.701 0.727,-1.846 2.194,-2.682 0.69,1.116 0.531,1.241 0.496,2.604 1.035,3.714 -1.557,4.556 -1.14,9.235 2.401,-0.796 3.809,-3.055 6.084,-3.563 l 1.607,1.454 -0.042,0.941 -2.559,1.987 -0.089,0.574 c 2.516,1.353 3.155,2.318 3.759,4.861 1.462,6.151 19.195,48.841 21.569,49.808 1.367,-1.189 1.641,-1.102 2.18,-2.658 -1.141,-4.165 -8.041,-16.742 -10.46,-23.043 -3.286,-8.561 -6.163,-21.56 -9.628,-28.404 1.807,1.315 3.607,2.589 5.338,4.002 1.712,0.921 1.299,0.317 2.165,1.691 l 2.698,1.26 c 1.371,0.304 2.862,0.504 4.034,1.218 1.621,0.515 3.262,1.054 4.886,1.549 l 3.729,0.513 c 1.651,0.119 3.328,0.316 4.968,0.166 1.169,-0.4 1.251,-0.271 2.544,-0.322 1.703,-0.164 2.299,-0.446 3.877,-1.005 l 1.65,-0.506 c 1.424,-0.31 1.713,-0.52 3.037,-1.099 0.786,-0.419 1.46,-0.644 2.292,-0.97 l 2.92,-1.597 c 1.555,-0.238 0.8,0.005 2.153,-1.28 1.085,-0.735 1.118,-0.929 2.381,-1.015 4.892,2.518 8.904,15.921 12.5,20.032 1.389,0.074 2.74,-1.012 4.028,-1.783 -4.331,-7.356 -8.807,-13.143 -13.011,-19.994 0.029,-1.532 -0.195,-0.8 1.039,-2.137 l 0.892,0.057 c 4.713,6.294 9.764,13.92 13.112,21.041 l 3.443,-1.661 c -1.221,-2.237 -14.259,-23.171 -14.209,-22.974 0.851,-1.596 0.404,-1.515 1.554,-2.036 3.437,2.26 13.261,19.783 15.146,23.953 l 5.819,-2.822 c -0.958,-1.207 -5.317,-6.994 -5.876,-8.201 -1.998,-4.313 -11.677,-14.303 -12.601,-17.465 0.25,-1.273 0.223,-1.184 1.167,-2.083 3.521,1.944 16.497,21.667 19.753,26.502 l 4.817,-2.072 c -4.313,-6.428 -9.218,-13.899 -14.105,-19.839 -2.112,-2.567 -5.837,-5.505 -8.546,-8.604 -0.478,-1.523 0.186,-2.795 0.697,-4.392 -0.269,-2.105 -0.29,-2.736 1.041,-4.332 -1.479,-2.234 -1.419,-3.533 -1.842,-6.211 12.185,11.328 23.527,23.25 31.209,38.131 10e-4,0 -0.2,2.255 -0.218,2.469 l 7.763,-2.348 c -8.057,-12.3 -17.599,-23.546 -27.971,-33.946 -5.066,-5.08 -14.456,-10.1 -15.963,-17.736 l -0.178,-1.842 2.653,-0.709 -3.801,-2.238 c -2.616,-1.634 -3.618,-2.164 -5.802,-4.461 3.398,-0.998 3.943,-1.225 6.923,0.771 1.272,-0.715 0.609,-0.541 2.058,-0.554 l 0.364,-1.008 c 5.499,-0.939 16.279,4.156 21.022,7.054 l 2.385,-0.681 c 16.365,2.643 47.662,39.209 57.075,52.932 z"
     id="path41" />
  <path
     fill="#4ea0b9"
     d="m 539.826,507.944 c 0.999,-1.701 0.727,-1.846 2.194,-2.682 0.69,1.116 0.531,1.241 0.496,2.604 1.035,3.714 -1.557,4.556 -1.14,9.235 2.401,-0.796 3.809,-3.055 6.084,-3.563 l 1.607,1.454 -0.042,0.941 -2.559,1.987 -0.089,0.574 c -0.218,9.603 13.815,36.549 18.099,46.303 1.187,2.7 3.576,6.924 3.949,9.888 0.08,0.635 -1.084,1.654 -1.635,2.277 l -0.654,-0.053 c -4.902,-6.007 -23.785,-51.632 -25.821,-52.482 l -1.239,0.235 c -0.811,3.858 20.031,42.107 23.034,48.492 -22.836,-13.842 -43.637,-19.756 -70.592,-17.768 -7.348,-11.818 -14.109,-19.726 -22.342,-30.851 4.311,1.948 19.658,24.781 23.015,29.988 9.38,-0.277 17.937,-0.308 27.319,0.83 2.516,0.305 7.947,2.708 9.627,2.652 6.081,-0.203 12.651,4.877 18.196,5.729 l 0.326,-0.33 c -9.6,-11.16 -12.347,-25.192 -20.314,-36.974 -0.449,-0.664 -3.327,0.739 -5.122,-0.022 l -0.326,-1.178 c 1.944,-1.41 6.754,-1.67 10.022,-4.603 3.705,-3.327 5.135,-10.596 7.907,-12.683 z"
     id="path42" />
  <path
     fill="#fefffe"
     d="m 539.826,507.944 c 0.999,-1.701 0.727,-1.846 2.194,-2.682 0.69,1.116 0.531,1.241 0.496,2.604 -1.008,3.641 -3.02,8.707 -4.35,12.364 -1.252,0.932 -5.975,3.412 -7.586,4.297 4.114,4.709 7.033,14.775 9.883,20.873 2.681,5.738 5.72,12.372 8.106,18.228 -9.204,-12.905 -13.329,-25.751 -20.664,-39.315 8.102,-5.481 8.454,-7.067 11.921,-16.369 z"
     id="path43" />
  <path
     fill="#fefffe"
     d="m 547.46,513.538 1.607,1.454 -0.042,0.941 -2.559,1.987 c -0.767,-0.127 -1.215,-0.286 -1.96,-0.505 l 0.016,-0.744 c 1.329,-1.147 1.916,-1.714 2.938,-3.133 z"
     id="path44" />
  <path
     fill="#4ea0b9"
     d="m 611.902,464.733 c 1.272,-0.715 0.609,-0.541 2.058,-0.554 4.139,1.41 12.257,4.082 15.652,6.482 16.609,11.738 36.307,34.154 47.96,50.517 l -7.359,0.711 c -19.647,-26.366 -29.816,-39.154 -58.311,-57.156 z"
     id="path45" />
  <path
     fill="#4ea0b9"
     d="m 614.582,470.661 c 12.05,4.634 30.791,24.794 39.37,35.006 4.158,4.95 8.598,11.629 12.795,16.72 l -7.56,1.72 c -9.406,-15.822 -32.009,-40.589 -47.08,-50.895 l -0.178,-1.842 z"
     id="path46" />
  <path
     fill="#4ea0b9"
     d="m 635.346,470.225 2.385,-0.681 0.424,0.35 c 3.989,3.256 9.258,6.368 12.878,9.535 14.91,13.046 27.715,27.521 40.459,42.586 -3.415,-0.241 -7.093,-0.572 -10.492,-0.607 -8.845,-15.71 -32.198,-38.774 -45.654,-51.183 z"
     id="path47" />
  <path
     fill="#4ea0b9"
     d="m 559.135,523.06 c 1.712,0.921 1.299,0.317 2.165,1.691 0.854,3.178 5.062,12.084 6.526,15.096 4.584,9.429 8.369,16.774 11.439,26.89 -0.089,0.151 -2.588,2.327 -2.888,2.592 -5.868,-11.775 -16.271,-33.16 -17.242,-46.269 z"
     id="path48" />
  <path
     fill="#4ea0b9"
     d="m 619.129,492.853 c 11.755,11.035 19.853,20.697 27.846,34.816 l -4.425,1.552 c -4.397,-7.384 -7.944,-13.265 -13.547,-19.953 -3.169,-3.782 -8.157,-8.462 -10.915,-12.083 -0.269,-2.105 -0.29,-2.736 1.041,-4.332 z"
     id="path49" />
  <path
     fill="#4ea0b9"
     d="m 563.998,526.011 c 1.371,0.304 2.862,0.504 4.034,1.218 5.574,8.653 12.833,24.658 17.664,34.467 l -4.124,3.092 c -2.749,-8.963 -12.699,-30.26 -17.574,-38.777 z"
     id="path50" />
  <path
     fill="#4ea0b9"
     d="m 572.918,528.778 3.729,0.513 c 0.324,1.187 2.005,2.565 2.889,3.995 2.385,3.864 11.187,21.742 10.531,24.981 -1.453,1.106 -0.667,0.81 -2.406,1.015 -1.802,-1.217 -2.754,-5.456 -3.797,-7.64 -3.641,-7.625 -7.551,-15.126 -10.946,-22.864 z"
     id="path51" />
  <path
     fill="#4ea0b9"
     d="m 581.615,529.457 c 1.169,-0.4 1.251,-0.271 2.544,-0.322 3.306,4.344 9.78,19.144 11.487,24.491 -0.794,1.453 -1.643,1.851 -3.005,2.792 -1.979,-5.336 -3.796,-10.065 -6.049,-15.28 -1.233,-2.854 -4.207,-9.114 -4.977,-11.681 z"
     id="path52" />
  <path
     fill="#4ea0b9"
     d="m 588.036,528.13 1.65,-0.506 c 4.258,5.487 8.46,15.971 12.157,22.501 l -3.75,2.265 c -2.074,-4.703 -9.103,-19.763 -10.057,-24.26 z"
     id="path53" />
  <path
     fill="#4ea0b9"
     d="m 592.723,526.525 c 0.786,-0.419 1.46,-0.644 2.292,-0.97 4.678,5.06 8.917,14.863 12.328,21.158 l -3.511,2.153 c -3.299,-7.082 -7.244,-15.56 -11.109,-22.341 z"
     id="path54" />
  <path
     fill="#4ea0b9"
     d="m 597.935,523.958 c 1.555,-0.238 0.8,0.005 2.153,-1.28 2.361,2.778 12.717,18.03 11.972,21.192 l -1.025,0.55 c -4.828,-1.498 -8.943,-15.661 -13.1,-20.462 z"
     id="path55" />
  <defs
     id="defs56">
    <linearGradient
       id="gradient_5"
       gradientUnits="userSpaceOnUse"
       x1="141.86662"
       y1="435.0831"
       x2="313.6315"
       y2="471.38809">
      <stop
         offset="0"
         stop-color="#4699B1"
         id="stop55" />
      <stop
         offset="1"
         stop-color="#71B9C9"
         id="stop56" />
    </linearGradient>
  </defs>
  <path
     fill="url(#gradient_5)"
     d="m 344.791,345.663 c 1.505,-1.022 1.216,-0.634 3.663,-0.248 -2.091,2.479 -4.593,5.619 -6.745,7.961 -2.259,2.94 -3.394,4.34 -6.017,6.928 -0.225,3.012 -1.642,8.453 -3.591,10.667 -1.789,1.945 -3.676,5.856 -4.928,8.311 -9.118,17.886 -14.405,43.853 -13.506,63.743 0.414,8.21 1.55,16.369 3.394,24.38 -11.273,0.001 -24.443,1.97 -35.009,5.881 l -2.859,1.086 c -4.678,2.74 -9.526,5.401 -14.18,8.233 -3.039,1.849 -11.753,9.593 -13.917,9.914 -1.384,-1.087 -1.479,-1.287 -2.55,-2.617 l -0.843,-0.128 c -2.6,3.214 -6.849,10.168 -9.867,12.448 l -0.928,-0.032 c -21.952,22.314 -44.295,38.71 -74.525,48.657 -15.005,4.937 -28.956,7.616 -43.756,11.679 l -0.337,-1.779 c -0.569,-3.073 -0.948,-10.023 -1.234,-13.412 6.59,-2.478 14.025,-4.663 20.807,-6.914 32.789,-10.884 65.38,-26.926 87.485,-54.363 9.61,-11.927 18.132,-27.773 25.77,-41.311 21.904,-38.821 49.602,-83.308 93.673,-99.084 z"
     id="path56"
     style="fill:url(#gradient_5)" />
  <path
     fill="#4ea0b9"
     d="m 335.692,360.304 c -0.225,3.012 -1.642,8.453 -3.591,10.667 -1.789,1.945 -3.676,5.856 -4.928,8.311 -9.118,17.886 -14.405,43.853 -13.506,63.743 0.414,8.21 1.55,16.369 3.394,24.38 -11.273,0.001 -24.443,1.97 -35.009,5.881 l -2.859,1.086 c -4.678,2.74 -9.526,5.401 -14.18,8.233 -3.039,1.849 -11.753,9.593 -13.917,9.914 -1.384,-1.087 -1.479,-1.287 -2.55,-2.617 l -0.843,-0.128 c -2.6,3.214 -6.849,10.168 -9.867,12.448 l -0.928,-0.032 c 1.917,-2.824 4.804,-5.931 6.935,-8.955 5.496,-7.945 11.554,-16.424 16.01,-25.004 18.171,-34.991 30.539,-74.706 63.724,-99.094 3.846,-2.827 8.239,-4.956 11.635,-8.344 z"
     id="path57" />
  <path
     fill="#fefffe"
     d="m 279.193,474.372 c 0.155,-1.511 5.932,-16.057 6.95,-18.775 10.98,-29.314 21.287,-66.887 44.884,-88.634 -1.402,2.368 -3.242,5.097 -4.919,7.273 -14.896,19.327 -22.445,41.279 -30.804,63.902 l -13.252,35.148 z"
     id="path58" />
  <path
     fill="#fefffe"
     d="m 341.307,351.956 0.402,1.42 c -2.259,2.94 -3.394,4.34 -6.017,6.928 l -0.48,0.489 c -3.396,3.388 -7.789,5.517 -11.635,8.344 -33.185,24.388 -45.553,64.103 -63.724,99.094 -4.456,8.58 -10.514,17.059 -16.01,25.004 -2.131,3.024 -5.018,6.131 -6.935,8.955 -21.952,22.314 -44.295,38.71 -74.525,48.657 -15.005,4.937 -28.956,7.616 -43.756,11.679 l -0.337,-1.779 c 0.71,-0.638 0.823,-0.701 1.776,-0.934 14.986,-3.661 31.924,-7.25 46.383,-12.706 23.094,-8.791 44.115,-22.272 61.741,-39.591 37.049,-36.806 41.17,-79.579 72.074,-119.213 8.383,-10.751 21.881,-21.68 32.87,-30.007 3.159,-1.98 5.337,-3.931 8.173,-6.34 z"
     id="path59" />
  <path
     fill="#b9e0ee"
     d="m 344.791,345.663 c 1.505,-1.022 1.216,-0.634 3.663,-0.248 -2.091,2.479 -4.593,5.619 -6.745,7.961 l -0.402,-1.42 c -2.836,2.409 -5.014,4.36 -8.173,6.34 -0.217,-0.481 -0.271,-1.087 -0.371,-1.639 0.54,-1.212 10.45,-9.585 12.028,-10.994 z"
     id="path60" />
  <path
     fill="#4ea0b9"
     d="m 332.763,356.657 c 2.787,-1.541 7.314,-5.367 10.543,-7.397 l 0.059,0.465 -2.058,2.231 c -2.836,2.409 -5.014,4.36 -8.173,6.34 -0.217,-0.481 -0.271,-1.087 -0.371,-1.639 z"
     id="path61" />
  <path
     fill="#4ea0b9"
     d="m 446.994,486.274 c 7.012,-2.281 16.331,-5.306 22.904,-8.353 29.955,-14.103 57.961,-33.538 86.381,-50.279 63.367,-37.329 133.941,-48.813 200.994,-12.717 46.312,24.93 96.738,67.318 150.664,73.976 0.282,5.422 0.623,10.791 0.576,16.222 -36.563,-2.704 -77.403,-22.399 -107.21,-42.874 -31.337,-21.527 -55.465,-41.721 -92.806,-52.395 -43.779,-12.514 -89.159,-6.528 -129.558,13.921 -14.975,7.579 -27.768,16.068 -42.002,24.809 -26.681,16.383 -53.03,34.293 -80.43,49.367 -1.563,-0.551 -10.149,-8.224 -11.876,-9.686 1.501,-2.422 0.452,0.658 2.363,-1.991 z"
     id="path62" />
  <path
     fill="#fefffe"
     d="m 332.101,370.971 c -3.024,15.271 2.215,33.186 10.688,45.951 15.06,22.219 38.263,37.615 64.589,42.854 58.477,11.255 101.878,-23.218 150.223,-49.283 50.084,-27.002 98.458,-43.686 156.102,-35.819 22.396,3.164 44.062,10.239 64.01,20.9 43.019,23.25 78.684,60.906 128.699,73.03 l 0.119,2.316 c -48.838,-11.07 -83.411,-46.305 -124.839,-69.759 -24.409,-14.032 -51.621,-22.486 -79.683,-24.756 -34.602,-2.946 -70.762,4.392 -102.687,17.646 -15.412,6.338 -30.407,13.646 -44.895,21.879 -38.077,21.537 -74.759,48.067 -120.396,49.024 -41.176,0.863 -71.345,-15.165 -94.25,-49.086 7.073,26.518 18.623,42.048 42.665,56.792 4.5,2.76 8.312,3.766 12.363,5.956 -0.8,1.139 -2.11,1.338 -3.667,1.982 -5.299,3.181 -10.159,6.96 -13.509,12.275 l -1.606,1.796 c -3.543,-1.623 -8.559,-4.86 -12.047,-6.962 -5.433,-6.11 -10.335,-7.96 -14.656,-12.677 -15.263,-6.53 -14.599,-5.349 -29.684,-7.349 l -2.579,-0.276 c -1.844,-8.011 -2.98,-16.17 -3.394,-24.38 -0.899,-19.89 4.388,-45.857 13.506,-63.743 1.252,-2.455 3.139,-6.366 4.928,-8.311 z"
     id="path63" />
  <path
     fill="#4ea0b9"
     d="m 330.758,394.424 c 2.689,10.133 6.409,21.818 9.568,31.893 8.108,25.866 26.894,42.569 50.816,54.281 -5.299,3.181 -10.159,6.96 -13.509,12.275 -9.12,-3.898 -19.388,-12.298 -25.562,-19.971 -19.967,-24.815 -23.608,-48.211 -21.313,-78.478 z"
     id="path64" />
  <path
     fill="#4ea0b9"
     d="m 319.64,467.681 0.618,-0.664 c -0.82,-6.479 -2.811,-11.769 -3.564,-19.545 -2.222,-22.964 3.037,-48.124 12.999,-68.754 0.186,8.087 -0.208,15.015 -1.33,23.075 -2.652,19.045 1.578,39.604 10.639,56.476 3.113,5.796 6.928,11.161 10.322,16.761 -15.263,-6.53 -14.599,-5.349 -29.684,-7.349 z"
     id="path65" />
  <path
     fill="#fefffe"
     d="m 438.285,484.765 c 41.356,-8.951 82.406,-40.152 118.589,-60.897 63.938,-36.658 136.868,-47.898 203.327,-10.852 41.655,23.22 78.635,53.961 124.975,68.341 5.682,1.763 18.263,3.856 22.728,5.83 l 0.033,1.714 C 854.011,482.243 803.585,439.855 757.273,414.925 690.22,378.829 619.646,390.313 556.279,427.642 c -28.42,16.741 -56.426,36.176 -86.381,50.279 -6.573,3.047 -15.892,6.072 -22.904,8.353 -1.446,0.407 -2.813,0.752 -4.208,1.319 z"
     id="path66" />
  <path
     fill="#fefffe"
     d="m 456.507,497.951 c 27.4,-15.074 53.749,-32.984 80.43,-49.367 14.234,-8.741 27.027,-17.23 42.002,-24.809 40.399,-20.449 85.779,-26.435 129.558,-13.921 37.341,10.674 61.469,30.868 92.806,52.395 29.807,20.475 70.647,40.17 107.21,42.874 l -0.038,2.45 c -3.587,-0.101 -7.184,-0.464 -10.73,-1.088 -38.142,-6.705 -74.32,-25.002 -105.554,-47.313 -25.414,-18.154 -49.353,-35.297 -79.198,-45.029 -14.085,-4.438 -28.683,-7.043 -43.434,-7.751 -64.668,-3.51 -108.96,30.694 -160.712,63.603 -3.401,2.163 -6.862,4.312 -10.281,6.456 l -24.736,15.46 c -4.228,2.632 -8.788,5.534 -13.186,7.891 -1.724,0.924 -2.007,0.573 -3.416,0.018 -0.909,-1.133 -0.75,-0.497 -0.721,-1.869 z"
     id="path67" />
  <path
     fill="#fefffe"
     d="m 606.058,427.144 c 12.629,-3.917 30.764,-3.777 44.141,-3.025 24.953,1.405 53.72,8.419 76.046,19.693 21.754,10.985 42.338,26.413 62.756,39.664 16.52,10.721 35.019,20.155 53.446,27.137 23.191,8.787 41.747,10.012 66.162,10.556 l -0.096,2.302 c -58.317,0.739 -94.508,-19.376 -141.765,-51.718 -19.636,-13.439 -40.205,-26.265 -62.721,-34.115 -20.382,-7.07 -41.842,-10.528 -63.414,-10.22 -8.651,0.09 -13.574,2.143 -22.398,0.78 2.286,-0.572 4.135,-1.138 6.367,-1.851 -7.806,1.211 -10.665,1.403 -18.524,0.797 z"
     id="path68" />
  <path
     fill="#fefffe"
     d="m 656.163,445.377 c 2.186,-0.644 9.755,2.058 12.626,2.734 25.397,5.98 50.102,15.568 72.982,28.28 36.125,20.07 68.423,46.412 109.486,56.363 18.048,4.374 32.383,4.84 50.89,3.451 3.025,-0.227 4.666,-0.869 5.407,1.305 -5.036,1.609 -13.614,1.874 -18.954,2.026 -28.379,0.806 -55.855,-8.053 -80.891,-20.949 -27.977,-14.41 -53.993,-34.026 -82.475,-47.517 -11.238,-5.274 -22.793,-9.846 -34.597,-13.689 -15.543,-4.945 -20.641,-2.929 -34.474,-12.004 z"
     id="path69" />
  <path
     fill="#044c75"
     d="m 509.43,620.157 c 3.457,-3.333 8.912,-4.811 13.635,-4.746 6.895,0.036 13.47,2.91 18.18,7.944 10.66,11.607 7.992,33.734 -11.383,32.853 -8.105,-0.369 -14.644,-9.284 -13.327,-17.003 0.916,-6.643 9.108,-12.12 15.589,-10.443 4.221,1.007 5.124,5.249 6.603,8.781 l 0.295,-0.278 c -0.749,-6.911 -1.671,-8.642 -7.538,-12.554 l 0.786,-0.365 c 4.253,1.671 7.38,6.938 8.449,11.209 -0.3,1.471 -0.389,2.932 -1.348,3.998 l -1.021,0.011 c -2.251,-3.14 -1.898,-10.823 -8.693,-10.158 -5.09,0.498 -11.312,3.192 -10.828,9.252 2.724,1.291 3.847,-4.717 7.468,-5.198 3.168,1.71 2.118,8.429 4.307,11.402 2.803,3.805 4.827,-0.512 6.533,4.176 -5.538,4.082 -9.458,1.817 -14.844,-2.267 0.029,0.022 -0.833,-1.075 -1.212,-1.408 l -0.431,0.665 0.435,1.228 -0.978,0.993 c 0.387,2.647 3.73,5.102 6.067,6.078 3.537,1.468 7.524,1.406 11.013,-0.172 17.34,-7.683 7.735,-33.812 -7.702,-37.072 -3.682,-0.778 -9.194,-0.143 -13.005,0.066 -0.64,0.035 -5.7,3.218 -6.666,3.83 z"
     id="path70" />
  <path
     fill="#fefffe"
     d="m 526.829,634.335 c 2.028,2.163 0.668,7.255 2.467,10.25 1.439,2.396 3.675,2.981 6.256,3.525 l 0.694,0.141 c -0.793,1.173 -2.337,1.494 -3.611,1.969 -1.097,-0.038 -2.189,-0.077 -3.265,-0.311 -2.824,-0.615 -5.435,-2.734 -6.845,-5.23 -0.958,-1.694 -1.308,-3.638 -0.67,-5.505 0.86,-2.514 2.7,-3.713 4.974,-4.839 z"
     id="path71" />
  <path
     fill="#4ea0b9"
     d="m 402.226,613.455 c 3.775,-2.311 10.856,-8.712 14.75,-11.73 5.856,-4.539 28.467,-19.01 35.09,-18.919 -6.321,5.909 -23.435,12.482 -30.579,19.682 -1.257,1.266 -14.764,13.184 -15.432,13.376 -1.67,-0.359 -1.707,-0.336 -3.215,-1.099 z"
     id="path72" />
  <path
     fill="#fefffe"
     d="m 606.895,682.204 c 5.125,-18.57 12.788,-36.345 22.773,-52.819 3.692,-6.153 23.33,-34.075 28.194,-35.284 0.532,2.71 -8.64,11.488 -10.993,14.171 -14.746,16.81 -33.686,50.217 -38.075,72.155 l -0.187,0.986 -0.545,0.799 z"
     id="path73" />
  <path
     fill="#b9e0ee"
     d="m 402.226,613.455 c -0.274,-1.308 -0.265,-0.866 -0.089,-2.128 6.173,-7.511 45.954,-32.961 53.988,-30.481 -1.524,1.507 -1.871,1.445 -4.059,1.96 -6.623,-0.091 -29.234,14.38 -35.09,18.919 -3.894,3.018 -10.975,9.419 -14.75,11.73 z"
     id="path74" />
  <path
     fill="#fefffe"
     d="m 724.668,636.426 c 4.448,-8.391 12.079,-22.26 14.655,-31.303 l 0.709,-0.549 0.54,0.429 c -1.107,7.926 -9.681,26.011 -15.095,31.938 z"
     id="path75" />
  <path
     fill="#4ea0b9"
     d="m 363.98,487.707 c 3.488,2.102 8.504,5.339 12.047,6.962 -1.091,2.703 -2.7,5.576 -4.063,8.185 z"
     id="path76" />
  <path
     fill="#fefffe"
     d="m 679.222,647.269 c 2.64,-3.882 16.98,-25.534 19.359,-26.878 -1.009,5.025 -14.272,22.028 -17.972,26.743 z"
     id="path77" />
  <path
     fill="#b9e0ee"
     d="m 610.781,468.423 -0.039,1.131 -1.067,0.103 c -2.536,-1.076 -7.526,-2.818 -8.925,-5.007 1.449,-0.949 2.16,-0.612 4.229,-0.688 2.184,2.297 3.186,2.827 5.802,4.461 z"
     id="path78" />
  <path
     fill="#4ea0b9"
     d="m 462.861,504.419 c 16.561,-8.518 32.752,-17.736 48.529,-27.63 9.797,-6.053 24.179,-15.598 33.914,-20.479 l -3.106,5.21 c -2.712,8.006 -5.017,13.811 -4.154,22.376 l -0.211,3.396 c 0.185,2.032 0.327,7.217 1.297,8.505 0.377,1.81 0.822,2.254 -0.268,3.845 -2.527,3.691 -6.461,6.365 -9.255,9.784 -0.044,1.944 -0.451,1.978 -2.316,3.717 -4.068,3.779 -8.387,7.583 -12.805,10.915 -2.664,2.01 -10.695,0.826 -13.872,0.225 -4.504,-0.853 -18.069,-4.949 -20.222,-8.394 -7.033,-3.959 -11.351,-6.36 -17.531,-11.47 z"
     id="path79" />
  <path
     fill="#4ea0b9"
     d="m 489.062,516.955 c 22.963,-9.657 29.679,-13.436 48.771,-29.663 0.185,2.032 0.327,7.217 1.297,8.505 0.377,1.81 0.822,2.254 -0.268,3.845 -2.527,3.691 -6.461,6.365 -9.255,9.784 -0.044,1.944 -0.451,1.978 -2.316,3.717 -4.068,3.779 -8.387,7.583 -12.805,10.915 -2.664,2.01 -10.695,0.826 -13.872,0.225 -4.504,-0.853 -18.069,-4.949 -20.222,-8.394 9.088,3.96 14.69,6.884 24.581,8.146 l -0.174,-0.118 c -3.339,-2.287 -11.621,-5.269 -15.737,-6.962 z"
     id="path80" />
  <path
     fill="#fefffe"
     d="m 529.607,509.426 c -2.583,1.453 -12.327,12.292 -16.146,14.052 -2.673,1.232 -3.129,1.244 -6.399,0.374 0.469,-0.665 8.367,-5.911 10.388,-7.625 7.665,-6.498 14.521,-13.397 21.68,-20.43 0.377,1.81 0.822,2.254 -0.268,3.845 -2.527,3.691 -6.461,6.365 -9.255,9.784 z"
     id="path81" />
  <path
     fill="#fefffe"
     d="m 462.861,504.419 c 16.561,-8.518 32.752,-17.736 48.529,-27.63 9.797,-6.053 24.179,-15.598 33.914,-20.479 l -3.106,5.21 c -23.869,14.55 -51.297,32.614 -76.264,43.853 5.453,3.054 12.562,7.266 18.299,9.397 14.074,-4.892 27.414,-11.684 39.651,-20.186 4.837,-3.386 9.593,-7.549 14.16,-10.688 l -0.211,3.396 c -19.092,16.227 -25.808,20.006 -48.771,29.663 4.116,1.693 12.398,4.675 15.737,6.962 l 0.174,0.118 c -9.891,-1.262 -15.493,-4.186 -24.581,-8.146 -7.033,-3.959 -11.351,-6.36 -17.531,-11.47 z"
     id="path82" />
  <path
     fill="#fefffe"
     d="m 684.54544,474.74721 c 5.313,0.618 10.929,3.933 15.811,6.084 16.864,7.431 32.614,16.468 48.014,26.59 22.128,14.546 44.662,32.104 69.79,40.982 19.055,6.733 39.38,8.905 59.489,8.414 5.055,-0.108 10.102,-0.456 15.124,-1.042 2.891,-0.365 7.766,-1.902 10.536,-1.593 0.362,0.041 0.679,0.262 1.018,0.394 l 0.195,1.192 c -6.055,1.162 -12.085,2.14 -18.233,2.68 -15.224,1.337 -29.96,0.861 -45.015,-1.747 -44.886,-7.774 -69.876,-33.285 -107.347,-55.058 -7.616,-4.426 -15.323,-8.801 -23.213,-12.722 -8.829,-4.386 -18.559,-7.781 -26.169,-14.174 z"
     id="path83" />
  <path
     fill="#1b87a1"
     d="m 459.696,630.094 0.123,-1.123 c 5.299,-6.934 20.384,-16.288 26.984,-22.701 -0.325,0.316 2.663,-1.288 2.505,-1.204 l -0.421,-0.597 c -5.718,-1.155 -24.292,10.96 -29.536,14.643 -2.938,2.063 -12.335,10.957 -14.948,10.859 -0.755,-1.009 -0.488,-0.429 -0.438,-1.928 4.587,-8.949 40.85,-30.451 50.463,-28.512 l 0.619,1.045 c 3.31,0.795 13.826,-6.655 17.614,-4.089 l -0.048,1.012 c -1.202,1.528 -2.773,2.387 -4.739,2.653 -6.771,0.916 -12.485,6.201 -18.124,8.641 l -0.373,-0.906 c -8.071,5.193 -17.616,13.894 -24.993,20.182 -3.867,3.297 -7.65,7.62 -11.795,10.622 2.722,-4.357 5.043,-5.715 7.107,-8.597 z"
     id="path84" />
  <path
     fill="#fefffe"
     d="m 459.696,630.094 c 14.646,-13.567 33.309,-30.377 53.258,-33.313 -9.295,4.401 -13.905,4.126 -23.577,11.106 -8.071,5.193 -17.616,13.894 -24.993,20.182 -3.867,3.297 -7.65,7.62 -11.795,10.622 2.722,-4.357 5.043,-5.715 7.107,-8.597 z"
     id="path85" />
  <path
     fill="#b9e0ee"
     d="m 491.591,600.544 1.332,-0.012 0.403,0.443 c -3.685,2.116 -8.406,2.69 -12.353,4.36 -13.029,5.514 -24.282,13.652 -34.674,23.106 -0.293,0.214 -0.681,0.251 -1.026,0.364 l 0.052,-0.689 c 11.467,-13.778 29.435,-22.543 46.266,-27.572 z"
     id="path86" />
  <path
     fill="#fefffe"
     d="m 656.391,579.062 0.306,0.254 c -0.664,1.718 -2.296,3.199 -3.631,4.447 -3.726,3.48 -7.927,6.489 -11.787,9.827 -7.498,6.486 -14.727,13.696 -21.017,21.358 -9.173,11.172 -17.129,23.574 -24.059,36.245 -7.099,12.98 -13.474,26.512 -22.38,38.393 -7.169,9.564 -16.449,18.396 -26.05,25.524 l -0.644,-0.649 c 1.308,-3.582 13.358,-12.736 16.802,-16.241 3.663,-3.707 7.074,-7.654 10.212,-11.814 8.852,-11.773 14.797,-25.256 21.861,-38.094 13.434,-24.418 36.341,-54.565 60.387,-69.25 z"
     id="path87" />
  <path
     fill="#fefffe"
     d="m 489.89,459.635 0.891,0.064 -0.454,0.534 c -20.299,7.753 -53.375,19.229 -74.941,16.624 -0.715,-0.029 -0.373,0.074 -1.012,-0.345 7.514,-3.126 20.953,-3.841 29.581,-5.614 15.384,-3.161 30.77,-7.18 45.935,-11.263 z"
     id="path88" />
  <path
     fill="#fefffe"
     d="m 656.323,568.58 0.317,0.149 c -0.539,0.8 -0.352,0.753 -1.009,1.135 -27.228,15.857 -48.238,29.291 -66.024,56.637 l -0.261,-0.286 c -0.153,-0.853 -0.04,-1.415 0.309,-2.19 1.766,-3.927 5.176,-7.631 7.89,-10.962 15.464,-18.983 36.103,-35.006 58.778,-44.483 z"
     id="path89" />
  <path
     fill="#fefffe"
     d="m 354.425,549.682 1.384,0.517 c 2.112,2.525 27.035,41.333 27.357,43.148 0.079,0.446 -0.052,0.905 -0.078,1.357 -5.283,-4.514 -26.328,-36.258 -29.011,-42.849 -0.409,-1.005 -0.043,-1.212 0.348,-2.173 z"
     id="path90" />
  <path
     fill="#fefffe"
     d="m 689.009,573.499 c 1.555,-0.254 3.047,-0.354 4.441,0.475 1.468,0.873 2.391,1.956 2.754,3.655 -0.262,1.262 -0.423,1.85 -1.333,2.779 -1.011,-0.426 -1.873,-0.66 -2.956,-0.829 -1.15,0.463 -2.115,1.181 -2.613,2.364 -0.479,1.14 -0.513,2.199 -0.111,3.37 1.053,3.061 3.296,4.771 6.117,6.077 l 0.5,0.28 c -1.155,0.477 -2.015,0.398 -3.214,0.113 -3.2,-0.763 -6.111,-2.535 -7.837,-5.389 -1.251,-2.061 -1.613,-4.541 -1.005,-6.874 0.774,-3.052 2.703,-4.43 5.257,-6.021 z"
     id="path91" />
  <path
     fill="#fefffe"
     d="m 848.133,609.83 c 0.579,0.156 1.115,0.273 1.66,0.551 2.861,1.461 4.227,5.769 5.078,8.645 5.564,18.818 -1.33,39.533 -10.335,56.099 l -0.619,0.136 c -0.373,-2.631 6.2,-15.157 7.405,-18.594 1.201,-3.487 2.107,-7.068 2.709,-10.706 2.096,-12.414 1.574,-25.601 -5.898,-36.131 z"
     id="path92" />
  <path
     fill="#fefffe"
     d="m 664.606,604.362 c 0.327,1.254 -0.047,2.153 -0.348,3.383 0.702,-0.31 0.785,-0.524 1.547,-0.288 -2.091,3.434 -5.279,6.255 -7.654,9.534 -10.01,13.825 -17.66,28.573 -20.771,45.448 l -0.12,1.611 -0.388,-0.25 c -0.038,-0.26 -0.085,-0.52 -0.116,-0.782 -1.688,-14.407 18.71,-46.73 27.85,-58.656 z"
     id="path93" />
  <path
     fill="#fefffe"
     d="m 676.762,613.878 0.633,0.872 c -0.749,3.537 -9.279,16.699 -11.545,21.369 -2.83,5.83 -4.568,11.883 -6.522,18.032 l -0.526,-0.578 c -0.004,-10.66 11.919,-30.398 17.96,-39.695 z"
     id="path94" />
  <path
     fill="#fefffe"
     d="m 297.444,500.678 c 2.402,1.791 3.729,11.365 4.249,14.374 0.333,1.924 0.842,3.924 -0.324,5.587 -1.784,-5.374 -4.656,-11.905 -5.058,-17.544 -0.092,-1.285 0.336,-1.47 1.133,-2.417 z"
     id="path95" />
  <path
     fill="#fefffe"
     d="m 304.518,498.753 c 0.74,0.102 1.476,0.253 2.211,0.387 0.773,1.156 1.187,2.412 1.249,3.806 0.101,2.258 -0.231,3.979 -1.679,5.726 -1.253,-1.406 -1.535,-3.844 -1.93,-5.679 -0.374,-1.736 -0.835,-2.712 0.149,-4.24 z"
     id="path96" />
  <path
     fill="#b9e0ee"
     d="m 478.259,629.426 c 0.033,0.426 0.075,0.566 -0.032,1.005 -0.865,3.569 -7.983,12.478 -10.936,14.579 0.302,-3.352 8.44,-12.593 10.968,-15.584 z"
     id="path97" />
  <path
     fill="#fefffe"
     d="m 311.077,498.225 c 2.01,-0.108 6.349,-0.748 7.858,0.398 l -1.162,0.957 c -1.524,0.872 -3.006,1.867 -4.753,2.197 -1.42,-0.95 -1.42,-1.958 -1.943,-3.552 z"
     id="path98" />
  <path
     fill="#fefffe"
     d="m 292.604,836.146 c 27.436,-3.097 54.193,-10.595 79.244,-22.204 20.23,-9.172 39.723,-19.924 60.109,-28.771 28.61,-12.415 61.183,-21.959 91.577,-9.793 12.147,4.862 23.483,14.232 28.591,26.544 3.723,8.975 4.265,20.49 0.468,29.527 -3.302,7.859 -9.949,14.823 -17.961,17.889 -7.417,2.805 -15.653,2.494 -22.837,-0.863 -5.931,-2.758 -11.002,-7.783 -13.106,-14.056 -1.537,-4.487 -1.176,-9.408 0.999,-13.623 1.679,-3.296 4.41,-6.034 8.024,-7.084 3.933,-1.142 7.397,-0.146 10.906,1.688 l -0.961,0.585 c -3.886,0.89 -7.039,1.599 -9.286,5.236 -1.436,2.324 -1.612,5.089 -0.838,7.678 1.124,3.761 4.061,6.622 7.466,8.416 4.62,2.434 10.164,3.193 15.162,1.536 5.676,-1.882 9.908,-6.514 12.377,-11.839 2.921,-6.301 2.979,-13.448 0.571,-19.915 -3.966,-10.654 -14.75,-18.73 -24.838,-23.102 -25.925,-11.236 -57.202,-1.333 -82.04,8.67 -39.233,15.8 -73.384,34.771 -115.905,41.829 -7.294,1.21 -15.304,2.568 -22.673,2.563 -1.748,-0.106 -3.484,-0.034 -5.049,-0.911 z"
     id="path99" />
  <defs
     id="defs113" />
  <defs
     id="defs120" />
  <defs
     id="defs124" />
  <defs
     id="defs126" />
  <path
     fill="#b9e0ee"
     d="m 518.618,815.4 c 1.701,1.681 3.235,3.826 3.085,6.369 -0.088,1.486 -0.494,2.127 -1.503,3.169 -0.848,0.303 -1.442,0.45 -2.344,0.436 l 0.053,-0.133 c 0.613,-0.355 0.879,-0.46 1.391,-0.932 0.882,-0.812 1.353,-1.933 1.295,-3.143 -0.103,-2.183 -1.476,-3.723 -2.938,-5.181 z"
     id="path135" />
  <path
     fill="#b9e0ee"
     d="m 297.653,837.057 c -2.89,0.629 -8.545,1.251 -11.177,-0.166 1.975,-0.62 4.074,-0.617 6.128,-0.745 1.565,0.877 3.301,0.805 5.049,0.911 z"
     id="path136" />
  <path
     fill="#1b87a1"
     d="m 503.791,787.745 c 1.601,0.173 3.816,0.147 5.167,1.015 -1.832,0.516 -4.187,0.321 -6.038,-0.087 z"
     id="path140" />
  <path
     style="fill:#4196b0;fill-opacity:1"
     d="m 508.54479,554.71902 17.27607,2.82699 15.39141,4.39755 9.42331,4.71166 11.62209,6.2822 4.08343,4.08344 11.30798,-8.79509 8.79509,-6.59632 7.53865,-5.65399 14.13497,-9.42331 7.85276,-4.71166 13.82086,-6.59632 12.25031,-5.65399 13.19264,-4.08343 12.2503,-2.82699 10.99387,-1.25645 16.33374,1.57056 h 3.1411 l -33.2957,-42.71902 -25.44295,-14.76319 -23.24417,-5.9681 -14.76319,1.57055 -4.71165,4.08344 10.05153,6.91043 5.02577,8.79509 3.45521,16.01963 -4.71165,12.56442 -13.50675,11.30797 -24.18651,4.71166 -18.84662,-9.73742 -8.16687,-10.67976 -2.827,-2.51288 -6.59632,2.82699 -5.65398,9.73742 -9.42332,7.22454 -5.9681,6.91043 z"
     id="path143" />
  <path
     style="fill:#4196b0;fill-opacity:1"
     d="m 435.04295,516.08344 h 6.91042 l 9.73743,10.99386 22.61595,26.38528 2.19877,3.76932 -15.0773,3.76933 -10.67975,3.45521 -15.70552,6.59632 -20.41718,10.99387 -13.82086,8.79509 -10.05154,7.53865 -5.33987,3.45521 -17.27608,-12.2503 -17.90429,-10.67976 -25.44295,-12.87853 -21.3595,-6.59631 -21.0454,-6.28221 -16.64786,-3.45522 -11.62208,-0.62822 -8.48098,-0.31411 -3.76933,-3.45521 2.82699,-8.16688 16.33375,-16.64785 17.90429,-13.19264 13.50675,-7.53865 13.82086,-5.33987 h 14.76319 l 2.19877,5.65398 -8.79509,6.59632 -9.42331,10.36565 0.62822,12.56441 2.51288,11.30798 11.62209,9.1092 15.39141,1.57055 20.41718,-4.39754 8.79509,-10.05154 6.91043,-9.1092 5.9681,8.79509 9.73742,10.05154 11.9362,4.08343 17.90429,0.62822 12.25031,-4.71165 5.02576,-8.16687 1.88467,-10.99387 z"
     id="path144" />
</svg>
